# ProBuilder 4.0.5
# https://unity3d.com/unity/features/worldbuilding/probuilder
# 6/2/2019 11:29:27 PM

mtllib ./West_Upper_City_Drive.mtl
o West Upper City Drive

g West Upper City Drive
v 147.7415 13.17556 1.371086
v 130.7079 13.17556 3.542343
v 147.7415 15.59019 1.371086
v 130.7079 15.59019 3.542343
v 113.249 10.13177 -103.3357
v 113.249 12.5464 -103.3357
v 130.0941 10.13177 -103.06
v 130.0941 12.5464 -103.06

vt 19.93596 2.435558
vt 2.764509 2.435558
vt 19.93596 4.850193
vt 2.764509 4.850193
vt 106.8404 2.435558
vt -1.454265 -0.6082344
vt 106.8404 4.850193
vt -1.454265 1.8064
vt 1.231677 -0.6082344
vt -15.61569 -0.6082344
vt 1.231677 1.8064
vt -15.61569 1.8064
vt -1.618995 -0.6082344
vt -107.5307 2.435558
vt -1.618995 1.8064
vt -107.5307 4.850193
vt -33.29893 103.5239
vt -16.26542 105.696
vt -15.64061 -0.9496966
vt 1.204383 -1.223563
vt 15.63444 -1.017124
vt -1.210669 -1.292968
vt 33.28035 103.4586
vt 16.24672 105.6286

vn 0.1264457 0 0.9919735
vn -0.9869192 0 0.1612161
vn 0.01636614 0 -0.9998661
vn 0.9860206 0 -0.1666235
vn -0.003635417 0.9995866 -0.02852004
vn -0.001584101 0.9995896 -0.02853194
vn 0.0004672149 0.9995925 -0.02854383
vn -0.0004781974 -0.9995731 0.02921479
vn 0.001538274 -0.9995889 0.02855099
vn 0.003554746 -0.9996048 0.02788718

g West Upper City Drive
usemtl ProBuilderDefault
f 3/3/1 4/4/1 2/2/1 1/1/1
f 4/7/2 6/8/2 5/6/2 2/5/2
f 6/11/3 8/12/3 7/10/3 5/9/3
f 8/15/4 3/16/4 1/14/4 7/13/4
f 8/19/6 6/20/7 4/18/6 3/17/5
f 1/23/9 2/24/10 5/22/9 7/21/8

