# ProBuilder 4.0.5
# https://unity3d.com/unity/features/worldbuilding/probuilder
# 6/2/2019 11:20:23 PM

mtllib ./Bay_View_Way_2.mtl
o Bay View Way 2

g Bay View Way 2
v 224.2296 7.481853 -176.0044
v 235.2106 7.481853 -162.3078
v 275.4521 6.576182 -206.6039
v 264.0809 7.011657 -179.1182
v 224.2296 9.849666 -176.0044
v 275.4521 8.943995 -206.6039
v 235.2106 9.849666 -162.3078
v 264.0809 9.37947 -179.1182
v 303.7978 6.039462 -215.2531
v 304.5123 6.474936 -195.0756
v 303.7978 8.407275 -215.2531
v 304.5123 8.84275 -195.0756

vt -40.13294 12.7664
vt -29.15271 26.46365
vt 11.09668 -17.83448
vt -0.278866 9.652845
vt 41.01272 1.905102
vt 41.01272 -0.4627113
vt -18.65358 0.9994316
vt -18.65358 -1.368382
vt -38.52039 -0.4627113
vt -38.52039 1.905102
vt -5.11257 -0.9329071
vt -5.11257 1.434906
vt 29.17968 26.48567
vt 40.16002 12.7885
vt 0.3059523 9.674622
vt -11.06934 -17.81276
vt 11.10175 -17.83361
vt -0.2749485 9.653263
vt 39.45249 -26.48317
vt 40.15981 -6.302418
vt -15.80044 0.9994316
vt -15.80044 -1.368382
vt -45.43641 0.4627113
vt -45.43641 -1.905102
vt -3.816997 -0.9329071
vt -3.816997 1.434906
vt 39.64948 -1.469627
vt 39.64948 0.8981857
vt 0.3020701 9.679242
vt -11.07234 -17.80858
vt -40.13237 -6.279391
vt -39.42161 -26.46081

vn -0.01195385 -0.9998826 0.009583778
vn -0.01062735 -0.9998837 0.01078887
vn -0.009300862 -0.9998848 0.01199396
vn -0.5128434 0 -0.8584822
vn 0.5031871 0 0.8641775
vn 0.0111021 0.9998988 -0.008900901
vn 0.01100717 0.9998876 -0.01011404
vn 0.01091225 0.9998763 -0.01132718
vn -0.01613472 -0.9998278 0.009165817
vn -0.01041241 -0.9997902 0.01545436
vn -0.004690098 -0.9997526 0.0217429
vn -0.291848 0 -0.9564647
vn 0.36712 0 0.9301736
vn 0.008391015 0.9998883 -0.01237043
vn 0.01030225 0.9997858 -0.01718911
vn 0.01221348 0.9996832 -0.02200779

g Bay View Way 2
usemtl ProBuilderDefault
f 3/3/2 4/4/3 2/2/2 1/1/1
f 6/7/4 3/8/4 1/6/4 5/5/4
f 4/11/5 8/12/5 7/10/5 2/9/5
f 8/15/7 6/16/8 5/14/7 7/13/6
f 9/19/10 10/20/11 4/18/10 3/17/9
f 11/23/12 9/24/12 3/22/12 6/21/12
f 10/27/13 12/28/13 8/26/13 4/25/13
f 12/31/15 11/32/16 6/30/15 8/29/14

