# ProBuilder 4.0.5
# https://unity3d.com/unity/features/worldbuilding/probuilder
# 6/3/2019 12:16:38 AM

mtllib ./Lower_City_Drive_7.mtl
o Lower City Drive 7

g Lower City Drive 7
v 35.42793 6.425261 -205.7152
v 52.77939 6.544886 -206.4525
v 44.24181 6.005769 -253.5206
v 60.81033 6.125394 -250.4468
v 35.42793 8.948055 -205.7152
v 44.24181 8.528563 -253.5206
v 52.77939 8.919256 -206.4525
v 60.81033 8.499764 -250.4468

vt -12.69856 23.89176
vt 4.653316 23.15447
vt -3.887983 -23.91608
vt 12.68096 -20.84243
vt 25.80761 1.471155
vt 25.80761 -1.051639
vt -22.8035 1.051664
vt -22.8035 -1.471131
vt -21.95198 -0.9320264
vt -21.95198 1.442344
vt 22.76933 -1.351518
vt 22.76933 1.022852
vt -4.65844 23.17791
vt 12.69305 23.9152
vt -12.6899 -20.81831
vt 3.878639 -23.89192

vn 0.00732389 -0.9999219 0.01012461
vn 0.006298008 -0.9999264 0.01031074
vn 0.005272127 -0.999931 0.01049688
vn -0.9834252 -1.487029E-06 -0.1813143
vn 0.9837438 0 0.1795774
vn 0.001264354 0.999956 -0.009303915
vn 0.002259516 0.9999586 -0.00873925
vn 0.003254677 0.9999613 -0.008174584

g Lower City Drive 7
usemtl ProBuilderDefault
f 3/3/2 4/4/3 2/2/2 1/1/1
f 6/7/4 3/8/4 1/6/4 5/5/4
f 4/11/5 8/12/5 7/10/5 2/9/5
f 8/15/7 6/16/8 5/14/7 7/13/6

