# ProBuilder 4.0.5
# https://unity3d.com/unity/features/worldbuilding/probuilder
# 6/3/2019 12:16:50 AM

mtllib ./Lower_City_Drive_9.mtl
o Lower City Drive 9

g Lower City Drive 9
v 73.67473 14.36045 -16.01878
v 57.22173 14.24082 -16.84816
v 73.67473 16.73482 -16.01878
v 57.22173 16.76361 -16.84816
v 54.1242 14.19742 -45.33816
v 54.1242 16.72021 -45.33815
v 71.63246 14.31705 -46.37728
v 71.63246 16.69142 -46.37728
v 49.40655 13.15519 -69.96204
v 66.91481 13.27482 -71.00116
v 49.40655 15.67799 -69.96204
v 66.91481 15.64919 -71.00116
v 39.75549 10.40077 -112.9137
v 56.72817 10.52039 -116.4371
v 39.75549 12.92356 -112.9137
v 56.72817 12.89476 -116.4371
v 33.86613 8.214514 -148.0033
v 51.21759 8.334139 -148.7405
v 33.86613 10.73731 -148.0033
v 51.21759 10.70851 -148.7405

vt 23.21999 1.871381
vt 6.746101 1.751756
vt 23.21999 4.245751
vt 6.746101 4.27455
vt 65.52061 1.751756
vt 36.86272 1.708356
vt 65.52061 4.27455
vt 36.86273 4.231151
vt -37.12009 1.827981
vt -67.5472 1.871381
vt -37.12009 4.202352
vt -67.5472 4.245751
vt -19.8965 66.36744
vt -3.443479 65.53806
vt -17.85432 36.00891
vt -0.3460295 37.04803
vt 17.8742 36.00401
vt 0.365529 37.04313
vt 19.91672 66.36251
vt 3.463289 65.53313
vt 0.369536 37.08016
vt 17.87816 36.04019
vt -4.357536 12.43604
vt 13.15108 11.39607
vt 36.4464 4.231153
vt 36.4464 1.708358
vt 11.37467 3.188924
vt 11.37467 0.6661291
vt -38.7203 1.827981
vt -38.7203 4.202352
vt -13.64857 0.7857523
vt -13.64857 3.160123
vt -17.86563 36.14679
vt -0.3573952 37.18684
vt -13.14709 11.50103
vt 4.361141 12.54108
vt -4.356643 12.43788
vt 13.15191 11.39679
vt -14.03608 -30.59566
vt 2.936914 -34.11592
vt 11.15884 3.188922
vt 11.15884 0.6661272
vt -32.86377 0.4344988
vt -32.86377 -2.088296
vt -13.97844 0.7857596
vt -13.97843 3.16013
vt 32.58541 -1.968664
vt 32.58541 0.405707
vt -13.15045 11.54628
vt 4.357722 12.58728
vt -2.958521 -33.97188
vt 14.01407 -30.45119
vt -14.05264 -30.5881
vt 2.919187 -34.1176
vt -19.98311 -65.73879
vt -2.632575 -66.48746
vt -32.43268 0.4344988
vt -32.43268 -2.088296
vt -68.01303 -1.751756
vt -68.01303 -4.27455
vt 33.07508 -1.968671
vt 33.07508 0.4056997
vt 65.84518 -4.154925
vt 65.84518 -1.780555
vt -2.962374 -33.96004
vt 14.00875 -30.4291
vt 2.573896 -66.33301
vt 19.92378 -65.58189

vn -0.05034489 0 0.9987319
vn -0.9941415 0 0.1080866
vn 0.9977449 0 -0.06711998
vn 0.001828643 0.9999971 -0.001552589
vn 0.006889663 -0.9999758 0.0009660635
vn 0.007061522 -0.9999747 0.0008514597
vn 0.009231503 -0.9991361 0.04052072
vn -0.9821373 -2.84524E-07 0.1881658
vn 0.9821372 0 -0.1881662
vn -0.0008566682 0.9991121 -0.04212421
vn 0.01047797 -0.9980429 0.06164854
vn 0.01460223 -0.9981401 0.05898269
vn 0.01872649 -0.9982373 0.05631684
vn -0.9756733 0 0.2192296
vn 0.9757771 -7.029486E-07 -0.2187671
vn -0.001923937 0.9981917 -0.06008118
vn -0.006500106 0.9981182 -0.0607977
vn -0.01107628 0.9980447 -0.06151422
vn 0.01927207 -0.9980749 0.05895047
vn 0.01447506 -0.9979278 0.06241399
vn 0.009678055 -0.9977808 0.06587752
vn -0.9862059 0 0.165523
vn 0.9857599 0 -0.1681588
vn -0.0119037 0.9977818 -0.06549791
vn -0.006441195 0.9979281 -0.06375934
vn -0.000978693 0.9980744 -0.06202076

g Lower City Drive 9
usemtl ProBuilderDefault
f 3/3/1 4/4/1 2/2/1 1/1/1
f 4/7/2 6/8/2 5/6/2 2/5/2
f 8/11/3 3/12/3 1/10/3 7/9/3
f 8/15/4 6/16/4 4/14/4 3/13/4
f 1/19/6 2/20/6 5/18/6 7/17/5
f 9/23/7 10/24/7 7/22/7 5/21/7
f 11/27/8 9/28/8 5/26/8 6/25/8
f 10/31/9 12/32/9 8/30/9 7/29/9
f 12/35/10 11/36/10 6/34/10 8/33/10
f 13/39/12 14/40/13 10/38/12 9/37/11
f 15/43/14 13/44/14 9/42/14 11/41/14
f 14/47/15 16/48/15 12/46/15 10/45/15
f 16/51/17 15/52/18 11/50/17 12/49/16
f 17/55/20 18/56/21 14/54/20 13/53/19
f 19/59/22 17/60/22 13/58/22 15/57/22
f 18/63/23 20/64/23 16/62/23 14/61/23
f 20/67/25 19/68/26 15/66/25 16/65/24

