# ProBuilder 4.0.5
# https://unity3d.com/unity/features/worldbuilding/probuilder
# 6/3/2019 12:16:31 AM

mtllib ./Lower_City_Drive_6.mtl
o Lower City Drive 6

g Lower City Drive 6
v 44.24181 6.005769 -253.5206
v 60.81033 6.125394 -250.4468
v 54.13252 5.896167 -283.0482
v 69.66036 6.015792 -275.7347
v 44.24181 8.528563 -253.5206
v 54.13252 8.418962 -283.0482
v 60.81033 8.499764 -250.4468
v 69.66036 8.390162 -275.7347

vt -12.71645 13.2201
vt 3.852481 16.29398
vt -2.826606 -16.30793
vt 12.70168 -8.994406
vt 16.57865 1.316198
vt 16.57865 -1.206596
vt -14.56139 1.206596
vt -14.56139 -1.316198
vt -14.11084 -1.086971
vt -14.11084 1.287399
vt 12.68093 -1.196573
vt 12.68093 1.177797
vt -3.856153 16.3051
vt 12.71238 13.23125
vt -12.70643 -8.982916
vt 2.821438 -16.29641

vn 0.006149041 -0.9999644 0.00577144
vn 0.00550507 -0.9999672 0.005903366
vn 0.004861098 -0.99997 0.006035291
vn -0.948218 0 -0.3176204
vn 0.9438667 0 0.3303267
vn 0.002387244 0.9999911 -0.003498667
vn 0.002749593 0.9999913 -0.003084049
vn 0.003111941 0.9999916 -0.002669432

g Lower City Drive 6
usemtl ProBuilderDefault
f 3/3/2 4/4/3 2/2/2 1/1/1
f 6/7/4 3/8/4 1/6/4 5/5/4
f 4/11/5 8/12/5 7/10/5 2/9/5
f 8/15/7 6/16/8 5/14/7 7/13/6

