# ProBuilder 4.0.5
# https://unity3d.com/unity/features/worldbuilding/probuilder
# 6/3/2019 12:16:20 AM

mtllib ./Lower_City_Drive_4.mtl
o Lower City Drive 4

g Lower City Drive 4
v 69.76832 5.256907 -307.016
v 81.9639 5.376533 -295.1564
v 89.78058 5.256907 -321.6079
v 98.2426 5.376533 -306.8734
v 69.76832 7.779702 -307.016
v 89.78058 7.779702 -321.6079
v 81.9639 7.750903 -295.1564
v 98.2426 7.750903 -306.8734

vt -14.24232 1.359262
vt -2.046346 13.21902
vt 5.769763 -13.23293
vt 14.23221 1.501899
vt 12.30873 1.261397
vt 12.30873 -1.261397
vt -12.4585 1.261397
vt -12.4585 -1.261397
vt -9.383233 -1.141772
vt -9.383233 1.232598
vt 10.67374 -1.141772
vt 10.67374 1.232598
vt 2.042802 13.22404
vt 14.2384 1.364469
vt -14.23589 1.507109
vt -5.773846 -13.22749

vn 0.004203094 -0.9999745 0.005764371
vn -0.5891637 0 -0.8080138
vn 0.5841817 0 0.8116229
vn 0.001004414 0.9999986 0.001395466

g Lower City Drive 4
usemtl ProBuilderDefault
f 3/3/1 4/4/1 2/2/1 1/1/1
f 6/7/2 3/8/2 1/6/2 5/5/2
f 4/11/3 8/12/3 7/10/3 2/9/3
f 8/15/4 6/16/4 5/14/4 7/13/4

