# ProBuilder 4.0.5
# https://unity3d.com/unity/features/worldbuilding/probuilder
# 6/2/2019 10:46:40 PM

mtllib ./East_City_Drive_3.mtl
o East City Drive 3

g East City Drive 3
v 45.9143 20.77085 147.8467
v 69.69284 20.77085 158.9827
v 56.91136 18.7058 109.8119
v 82.59769 18.7058 114.4785
v 45.9143 23.7679 147.8467
v 56.91136 21.70284 109.8119
v 69.69284 23.7679 158.9827
v 82.59769 21.70284 114.4785

vt 69.79441 -141.0519
vt 93.56699 -129.9032
vt 80.83495 -179.1301
vt 106.5148 -174.4414
vt -154.9614 -0.02210426
vt -154.9614 -3.01915
vt -194.5541 -2.08716
vt -194.5541 -5.084206
vt 150.9097 -3.01915
vt 150.9097 -0.02210426
vt 197.2471 -5.084206
vt 197.2471 -2.08716
vt -93.50615 -129.8269
vt -69.73196 -140.9722
vt -106.4481 -174.3682
vt -80.76652 -179.051

vn -0.02236338 -0.9986088 0.04775234
vn -0.01518178 -0.9988034 0.04589372
vn -0.008000185 -0.998998 0.0440351
vn -0.9606521 0 -0.2777547
vn 0.960437 0 0.2784973
vn 0.01911311 0.998984 -0.04081205
vn 0.01423597 0.9988062 -0.04616274
vn 0.009358829 0.9986284 -0.05151343

g East City Drive 3
usemtl ProBuilderDefault
f 3/3/2 4/4/3 2/2/2 1/1/1
f 6/7/4 3/8/4 1/6/4 5/5/4
f 4/11/5 8/12/5 7/10/5 2/9/5
f 8/15/7 6/16/8 5/14/7 7/13/6

