# ProBuilder 4.0.5
# https://unity3d.com/unity/features/worldbuilding/probuilder
# 6/2/2019 10:46:28 PM

mtllib ./East_City_Drive_1.mtl
o East City Drive 1

g East City Drive 1
v -12.8232 23.53164 295.2974
v -37.673 23.53164 280.6621
v -12.8232 26.52868 295.2974
v -37.673 26.52868 280.6621
v -32.22335 23.79 265.2009
v -32.22335 26.78705 265.2009
v -1.417997 23.79 278.9265
v -1.417997 26.78705 278.9265
v -3.77187 21.7641 223.5594
v 21.20343 21.7641 240.9441
v -3.77187 24.76114 223.5594
v 21.20343 24.76114 240.9441
v 21.03977 21.66973 190.9287
v 43.5675 21.66973 208.3134
v 21.03977 24.66678 190.9287
v 43.5675 24.66678 208.3134

vt 12.68506 -0.2583618
vt -16.15424 -0.2583618
vt 12.68506 2.738684
vt -16.15424 2.738684
vt -3.252495 -0.2583618
vt -19.64605 0
vt -3.252495 2.738684
vt -19.64605 2.997046
vt 21.06858 0
vt 1.116482 -0.2583618
vt 21.06858 2.997046
vt 1.116483 2.738684
vt -11.02461 6.277207
vt 13.82465 -8.359024
vt -22.43127 -10.09476
vt 8.373417 -23.82179
vt 22.41168 -10.06133
vt -8.393229 -23.78794
vt 11.00526 6.3108
vt -13.84418 -8.325061
vt -8.392192 -23.7778
vt 22.40891 -10.04264
vt 20.08902 -65.44816
vt 45.06088 -48.06014
vt -14.90707 2.997046
vt -14.90707 0
vt -65.34015 0.9711437
vt -65.34015 -2.025902
vt 20.1144 0
vt 20.1144 2.997046
vt 64.32291 -2.025902
vt 64.32291 0.9711437
vt -22.35177 -9.910686
vt 8.448149 -23.64849
vt -45.00725 -47.92681
vt -20.03636 -65.31577
vt 20.06078 -65.4342
vt 45.03606 -48.04955
vt 44.87252 -98.06497
vt 67.40024 -80.68031
vt -64.22452 0.9711437
vt -64.22452 -2.025902
vt -105.217 0.8767757
vt -105.217 -2.12027
vt 65.09019 -2.025902
vt 65.09019 0.9711437
vt 104.6492 -2.12027
vt 104.6492 0.8767757
vt -45.03207 -48.0438
vt -20.05679 -65.42846
vt -67.39625 -80.67455
vt -44.86853 -98.05923

vn -0.5074783 3.229641E-07 0.8616646
vn -0.9431293 0 -0.3324261
vn 0.8205122 0 0.5716291
vn -0.006589974 0.9999157 0.01118934
vn -0.006512012 0.9998953 0.01281486
vn -0.006434049 0.9998751 0.01444038
vn 0.005365567 -0.9999131 -0.01204231
vn 0.006757133 -0.9998921 -0.01293913
vn 0.008148698 -0.9998711 -0.01383595
vn -0.01660415 -0.9991674 0.03726584
vn -0.02141139 -0.9990569 0.03746617
vn -0.02621863 -0.9989464 0.0376665
vn -0.8256769 0 -0.5641434
vn 0.8591651 0 0.5116986
vn 0.01876134 0.998937 -0.04210738
vn 0.02084639 0.9990655 -0.0375257
vn 0.02293144 0.9991941 -0.03294402
vn -0.001316332 -0.9999974 0.001891083
vn -0.7960176 0 -0.6052734
vn 0.8248615 0 0.5653348
vn 0.001362861 0.9999971 -0.001957929

g East City Drive 1
usemtl ProBuilderDefault
f 3/3/1 4/4/1 2/2/1 1/1/1
f 4/7/2 6/8/2 5/6/2 2/5/2
f 8/11/3 3/12/3 1/10/3 7/9/3
f 8/15/5 6/16/6 4/14/5 3/13/4
f 1/19/8 2/20/9 5/18/8 7/17/7
f 9/23/11 10/24/12 7/22/11 5/21/10
f 11/27/13 9/28/13 5/26/13 6/25/13
f 10/31/14 12/32/14 8/30/14 7/29/14
f 12/35/16 11/36/17 6/34/16 8/33/15
f 13/39/18 14/40/18 10/38/18 9/37/18
f 15/43/19 13/44/19 9/42/19 11/41/19
f 14/47/20 16/48/20 12/46/20 10/45/20
f 16/51/21 15/52/21 11/50/21 12/49/21

