# ProBuilder 4.0.5
# https://unity3d.com/unity/features/worldbuilding/probuilder
# 6/2/2019 11:51:02 PM

mtllib ./Upper_City_Drive_2.mtl
o Upper City Drive 2

g Upper City Drive 2
v 151.4128 11.09673 -230.2494
v 172.0772 11.09673 -212.6182
v 163.0386 11.09673 -244.5529
v 183.703 11.09673 -226.9217
v 172.0772 13.74625 -212.6182
v 183.703 13.74625 -226.9217
v 151.4128 13.74625 -230.2494
v 163.0386 13.74625 -244.5529
v 196.6024 11.09673 -273.6907
v 211.4901 11.09673 -251.649
v 196.6024 13.74625 -273.6907
v 211.4901 13.74625 -251.649

vt -30.03864 12.90505
vt -9.374252 30.53628
vt -18.41287 -1.398468
vt 2.251511 16.23277
vt -29.60887 -1.32476
vt -29.60887 1.32476
vt -11.17659 -1.32476
vt -11.17659 1.32476
vt 9.374252 30.53628
vt 30.03864 12.90505
vt -2.251511 16.23277
vt 18.41287 -1.398468
vt 15.15097 -30.53629
vt 30.03862 -8.494598
vt 12.98754 1.32476
vt 12.98754 -1.32476
vt -31.45955 1.32476
vt -31.45955 -1.32476
vt -9.109249 -1.32476
vt -9.109249 1.32476
vt 28.08707 -1.32476
vt 28.08707 1.32476
vt -30.03862 -8.494598
vt -15.15097 -30.53629

vn 0 -1 0
vn 0.7760035 0 0.6307285
vn 0 1 0
vn -0.6555619 0 -0.7551415
vn 0.6647799 0 0.7470393

g Upper City Drive 2
usemtl ProBuilderDefault
f 3/3/1 4/4/1 2/2/1 1/1/1
f 4/7/2 6/8/2 5/6/2 2/5/2
f 6/11/3 8/12/3 7/10/3 5/9/3
f 9/13/1 10/14/1 4/4/1 3/3/1
f 11/17/4 9/18/4 3/16/4 8/15/4
f 10/21/5 12/22/5 6/20/5 4/19/5
f 12/23/3 11/24/3 8/12/3 6/11/3

