# ProBuilder 4.0.5
# https://unity3d.com/unity/features/worldbuilding/probuilder
# 6/2/2019 11:51:21 PM

mtllib ./Upper_City_Drive_5.mtl
o Upper City Drive 5

g Upper City Drive 5
v 94.78407 9.810479 -104.7204
v 95.35309 9.810479 -107.1
v 94.78407 12.46 -104.7204
v 95.35309 12.46 -107.1
v 130.5814 9.810479 -107.1
v 130.5814 9.810479 -103.2713
v 130.5814 12.46 -107.1
v 130.5814 12.46 -103.2713
v 100.0216 9.810479 -131.9623
v 127.7212 9.810479 -131.9623
v 100.0216 12.46 -131.9623
v 127.7212 12.46 -131.9623
v 100.3184 10.15441 -149.2066
v 127.7212 10.15441 -147.8002
v 100.3184 12.80393 -149.2066
v 127.7212 12.80393 -147.8002

vt 25.09123 -1.496725
vt 22.64458 -1.496725
vt 25.09123 1.152796
vt 22.64458 1.152796
vt -19.13898 -1.496725
vt -22.96766 -1.496725
vt -19.13898 1.152796
vt -22.96766 1.152796
vt -17.89868 22.96766
vt 17.89869 21.51854
vt -17.89868 19.13898
vt 17.32967 19.13898
vt 17.89868 19.13898
vt -17.32967 19.13898
vt 17.89868 22.96766
vt -17.89869 21.51854
vt -12.66118 -5.723328
vt 15.03846 -5.723328
vt 22.0084 1.152796
vt 22.0084 -1.496725
vt -3.288421 1.152796
vt -3.288421 -1.496725
vt -21.05919 -1.496725
vt -21.05919 1.152796
vt 3.967101 -1.496725
vt 3.967101 1.152796
vt -15.03846 -5.723328
vt 12.66118 -5.723328
vt -12.66118 -5.692344
vt 15.03846 -5.692344
vt -12.3644 -22.9401
vt 15.03846 -21.53396
vt -5.504607 1.152796
vt -5.504607 -1.496725
vt -22.75149 1.496725
vt -22.75149 -1.152796
vt 5.723328 -1.496725
vt 5.723328 1.152796
vt 21.56123 -1.152796
vt 21.56123 1.496725
vt -15.03846 -5.747006
vt 12.66118 -5.747006
vt -15.03846 -21.58865
vt 12.3644 -22.99473

vn -0.972579 0 -0.2325729
vn 1 0 0
vn 0 1 0
vn 0 -1 0
vn -0.9828234 0 -0.1845484
vn 0.9934476 0 -0.1142887
vn 0 -0.9998012 -0.01994053
vn 0.000557131 -0.9997824 -0.02082549
vn 0.001114262 -0.9997637 -0.02171045
vn -0.9998519 0 -0.01720795
vn 0 0.9997643 0.02171046
vn -0.0005112598 0.9997827 0.02081669
vn -0.00102252 0.999801 0.01992293

g Upper City Drive 5
usemtl ProBuilderDefault
f 3/3/1 4/4/1 2/2/1 1/1/1
f 7/7/2 8/8/2 6/6/2 5/5/2
f 7/11/3 4/12/3 3/10/3 8/9/3
f 6/15/4 1/16/4 2/14/4 5/13/4
f 9/17/4 10/18/4 5/13/4 2/14/4
f 11/21/5 9/22/5 2/20/5 4/19/5
f 10/25/6 12/26/6 7/24/6 5/23/6
f 12/27/3 11/28/3 4/12/3 7/11/3
f 13/31/8 14/32/9 10/30/8 9/29/7
f 15/35/10 13/36/10 9/34/10 11/33/10
f 14/39/2 16/40/2 12/38/2 10/37/2
f 16/43/12 15/44/13 11/42/12 12/41/11

