# ProBuilder 4.0.5
# https://unity3d.com/unity/features/worldbuilding/probuilder
# 6/2/2019 11:36:20 PM

mtllib ./East_Upper_City_Drive_1.mtl
o East Upper City Drive 1

g East Upper City Drive 1
v 95.76797 11.65032 -76.35419
v 112.0913 11.71279 -71.66756
v 95.35524 9.768705 -104.6154
v 112.8257 9.831173 -103.1055
v 95.76797 14.17318 -76.35419
v 95.35524 12.29156 -104.6154
v 112.0913 14.23564 -71.66756
v 112.8257 12.35402 -103.1055

vt -8.316105 11.72913
vt 8.004324 16.42619
vt -8.699898 -16.59507
vt 8.767521 -15.06652
vt 11.66451 2.171001
vt 11.66451 -0.3518505
vt -16.59972 0.2893829
vt -16.59972 -2.233469
vt -16.28258 -0.2893829
vt -16.28258 2.233469
vt 15.16397 -2.171001
vt 15.16397 0.3518505
vt -7.970488 16.58384
vt 8.350557 11.88891
vt -8.729785 -14.9098
vt 8.738284 -16.43449

vn -0.01531734 -0.997659 0.06664737
vn -0.008454158 -0.9979368 0.06317756
vn -0.001590976 -0.9982147 0.05970776
vn -0.9998934 0 0.01460246
vn 0.9997272 0 0.02335385
vn 0.01324368 0.9981446 -0.05943136
vn 0.007710042 0.9979655 -0.06294765
vn 0.002176406 0.9977865 -0.06646393

g East Upper City Drive 1
usemtl ProBuilderDefault
f 3/3/2 4/4/3 2/2/2 1/1/1
f 6/7/4 3/8/4 1/6/4 5/5/4
f 4/11/5 8/12/5 7/10/5 2/9/5
f 8/15/7 6/16/8 5/14/7 7/13/6

