# ProBuilder 4.0.5
# https://unity3d.com/unity/features/worldbuilding/probuilder
# 6/2/2019 11:37:03 PM

mtllib ./East_Upper_City_Drive_2.mtl
o East Upper City Drive 2

g East Upper City Drive 2
v 76.50947 13.00124 -41.16948
v 92.49364 13.06371 -35.34527
v 89.8154 12.05227 -64.53481
v 104.2234 12.11473 -56.37749
v 76.50947 15.5241 -41.16948
v 89.8154 14.57512 -64.53481
v 92.49364 15.58656 -35.34527
v 104.2234 14.63758 -56.37749
v 95.76797 11.65032 -76.35419
v 112.0913 11.71279 -71.66756
v 95.76797 14.17318 -76.35419
v 112.0913 14.23564 -71.66756

vt -17.78461 14.64345
vt -1.801648 20.47132
vt -4.470663 -8.736577
vt 9.93614 -0.5775701
vt 21.56072 1.905652
vt 21.56072 -0.6171999
vt -5.327686 0.9566736
vt -5.327686 -1.566178
vt -18.78779 -0.5547323
vt -18.78779 1.96812
vt 5.294159 -1.503711
vt 5.294159 1.019141
vt 1.827125 20.5652
vt 17.80978 14.73649
vt -9.911828 -0.4832681
vt 4.494691 -8.642635
vt -4.466489 -8.727183
vt 9.939767 -0.5666354
vt 1.490344 -20.55125
vt 17.81183 -15.85939
vt -5.739525 0.9566736
vt -5.739525 -1.566178
vt -18.97323 0.5547323
vt -18.97323 -1.96812
vt 5.00957 -1.503711
vt 5.00957 1.019141
vt 22.20523 -1.905652
vt 22.20523 0.6171999
vt -9.914327 -0.5033449
vt 4.492634 -8.662648
vt -17.78527 -15.79715
vt -1.463018 -20.48695

vn -0.009013314 -0.9993306 0.03545479
vn -0.01256037 -0.9992745 0.0357783
vn -0.01610743 -0.9992183 0.03610181
vn -0.8689741 0 -0.4948576
vn 0.8733604 0 0.4870746
vn 0.01040729 0.9991741 -0.03927879
vn 0.01225415 0.9992722 -0.03591894
vn 0.014101 0.9993703 -0.0325591
vn -0.01160272 -0.9995365 0.02814775
vn -0.007421711 -0.9996141 0.02637989
vn -0.003240703 -0.9996918 0.02461204
vn -0.8931274 0 -0.4498037
vn 0.8891823 0 0.4575532
vn 0.008165725 0.9997229 -0.02207854
vn 0.006675004 0.9996085 -0.02672868
vn 0.005184284 0.9994941 -0.03137881

g East Upper City Drive 2
usemtl ProBuilderDefault
f 3/3/2 4/4/3 2/2/2 1/1/1
f 6/7/4 3/8/4 1/6/4 5/5/4
f 4/11/5 8/12/5 7/10/5 2/9/5
f 8/15/7 6/16/8 5/14/7 7/13/6
f 9/19/10 10/20/11 4/18/10 3/17/9
f 11/23/12 9/24/12 3/22/12 6/21/12
f 10/27/13 12/28/13 8/26/13 4/25/13
f 12/31/15 11/32/16 6/30/15 8/29/14

