# ProBuilder 4.0.5
# https://unity3d.com/unity/features/worldbuilding/probuilder
# 6/3/2019 12:01:18 AM

mtllib ./Upper_City_Pass_1.mtl
o Upper City Pass 1

g Upper City Pass 1
v -5.914307 13.93882 -263.8407
v -5.914307 11.2893 -263.8407
v -0.4840622 13.93882 -279.9446
v -0.4840622 11.2893 -279.9446
v 77.33979 14.48992 -234.5935
v 77.33979 11.8404 -234.5935
v 26.6563 13.93882 -251.5446
v 26.6563 11.2893 -251.5446
v 77.51934 14.48992 -254.5065
v 33.42056 13.93882 -267.5654
v 77.51934 11.8404 -254.5065
v 33.42056 11.2893 -267.5654

vt 7.102375 1.04921
vt 7.102375 -1.600311
vt -9.892377 1.04921
vt -9.892377 -1.600311
vt 46.58472 1.600311
vt 46.58472 -1.04921
vt -6.858267 1.04921
vt -6.858267 -1.600311
vt -41.73352 2.762664
vt -41.55399 22.67563
vt 2.368697 -10.29627
vt 9.132431 5.724618
vt 41.52346 22.67536
vt 41.703 2.762396
vt -9.163028 5.72434
vt -2.399165 -10.29654
vt -40.78423 -1.04921
vt -40.78423 1.600311
vt 5.207487 -1.600311
vt 5.207487 1.04921
vt -6.534904 1.04921
vt -6.534904 -1.600311
vt -41.34928 1.04921
vt -41.34928 -1.600311
vt 2.381958 -10.29639
vt 9.146217 5.724487
vt 36.28658 -22.67554
vt 41.71683 -6.571686
vt -9.146217 5.724487
vt -2.381958 -10.29639
vt -41.71683 -6.571686
vt -36.28658 -22.67554
vt 5.768846 -1.600311
vt 5.768846 1.04921
vt 41.86271 -1.600311
vt 41.86271 1.04921

vn -0.947578 0 -0.3195248
vn -0.3171795 0 0.9483655
vn -0.01246274 0.9999223 -0.0001123733
vn -0.01099509 0.9999344 -0.002067505
vn -0.009527451 0.9999465 -0.004022636
vn 0.01084007 -0.9999412 9.774216E-05
vn 0.0109737 -0.9999343 0.002393713
vn 0.01110732 -0.9999273 0.004689683
vn 0.2839409 0 -0.9588418
vn -0.3531925 0 0.9355507
vn 0 1 0
vn 0 -1 0
vn 0.3429711 0 -0.939346

g Upper City Pass 1
usemtl ProBuilderDefault
f 3/3/1 4/4/1 2/2/1 1/1/1
f 7/7/2 8/8/2 6/6/2 5/5/2
f 10/11/4 7/12/5 5/10/4 9/9/3
f 8/15/7 12/16/8 11/14/7 6/13/6
f 12/19/9 10/20/9 9/18/9 11/17/9
f 1/23/10 2/24/10 8/22/10 7/21/10
f 3/27/11 1/28/11 7/26/11 10/25/11
f 2/31/12 4/32/12 12/30/12 8/29/12
f 4/35/13 3/36/13 10/34/13 12/33/13

