# ProBuilder 4.0.5
# https://unity3d.com/unity/features/worldbuilding/probuilder
# 6/3/2019 12:01:45 AM

mtllib ./Upper_City_Pass_3.mtl
o Upper City Pass 3

g Upper City Pass 3
v 151.4128 13.74625 -230.2494
v 151.4128 11.09673 -230.2494
v 136.5992 14.04562 -235.7621
v 136.5992 11.3961 -235.7621
v 163.0386 13.74625 -244.5529
v 139.8854 14.04562 -255.1817
v 163.0386 11.09673 -244.5529
v 139.8854 11.3961 -255.1817

vt 5.84164 1.175077
vt 5.84164 -1.474443
vt -9.964449 1.474443
vt -9.964449 -1.175077
vt -13.20803 -1.847294
vt -1.582783 12.45665
vt 9.946915 -12.47636
vt 13.23298 6.942896
vt 1.616601 12.4834
vt 13.24096 -1.821254
vt -13.19986 6.970277
vt -9.914046 -12.44841
vt -11.24766 -1.474443
vt -11.24766 1.175077
vt 14.22859 -1.175077
vt 14.22859 1.474443

vn -0.3487699 0 0.9372084
vn 0.009415671 0.9999264 0.007652966
vn 0.01421189 0.9998703 0.005434772
vn 0.0190081 0.9998142 0.003216577
vn -0.01551271 -0.9998002 -0.01260858
vn -0.0137548 -0.9998631 -0.007319356
vn -0.0119969 -0.999926 -0.002030132
vn 0.4172026 0 -0.9088135

g Upper City Pass 3
usemtl ProBuilderDefault
f 3/3/1 4/4/1 2/2/1 1/1/1
f 6/7/3 3/8/4 1/6/3 5/5/2
f 4/11/6 8/12/7 7/10/6 2/9/5
f 8/15/8 6/16/8 5/14/8 7/13/8

