# ProBuilder 4.0.5
# https://unity3d.com/unity/features/worldbuilding/probuilder
# 6/3/2019 12:33:04 AM

mtllib ./Lower_City_Pass_2.mtl
o Lower City Pass 2

g Lower City Pass 2
v 148.4662 0.7616277 -231.4288
v 141.2769 1.397673 -191.2881
v 191.8 4.220262 -205.0325
v 163.7971 4.856306 -179.5875
v 148.4662 3.650537 -231.4288
v 191.8 6.673211 -205.0325
v 141.2769 4.286582 -191.2881
v 163.7971 7.309257 -179.5875

vt -18.24292 -25.96874
vt -25.37772 14.18666
vt 25.22284 0.4372341
vt -2.68407 25.938
vt 28.91877 -0.3849058
vt 28.91877 -3.273815
vt -21.8216 2.637769
vt -21.8216 0.1848192
vt -15.86046 -2.63777
vt -15.86046 0.2511396
vt 9.517964 0.8208637
vt 9.517964 3.273814
vt 25.06668 14.3245
vt 17.99749 -25.8425
vt 2.348468 26.0328
vt -25.39745 0.4654767

vn 0.06311068 -0.9976382 0.02711129
vn 0.075768 -0.9931092 0.07456865
vn 0.08842532 -0.9885801 0.122026
vn 0.5202222 0 -0.8540309
vn -0.4610455 0 0.8873765
vn -0.1144289 0.9927708 -0.03622541
vn -0.0734973 0.9951954 -0.04850115
vn -0.03256571 0.99762 -0.0607769

g Lower City Pass 2
usemtl ProBuilderDefault
f 3/3/2 4/4/3 2/2/2 1/1/1
f 6/7/4 3/8/4 1/6/4 5/5/4
f 4/11/5 8/12/5 7/10/5 2/9/5
f 8/15/7 6/16/8 5/14/7 7/13/6

