# ProBuilder 4.0.5
# https://unity3d.com/unity/features/worldbuilding/probuilder
# 6/3/2019 12:33:10 AM

mtllib ./Lower_City_Pass_3.mtl
o Lower City Pass 3

g Lower City Pass 3
v 220.585 6.994615 -174.5886
v 185.9255 7.630659 -149.5556
v 220.585 9.447564 -174.5886
v 185.9255 10.08361 -149.5556
v 191.8 4.220262 -205.0325
v 163.7971 4.856306 -179.5875
v 191.8 6.673211 -205.0325
v 163.7971 7.309257 -179.5875

vt 21.43399 -0.157321
vt -21.32038 0.4787235
vt 21.43399 2.295629
vt -21.32038 2.931674
vt -0.4855426 -27.86406
vt -28.45331 -2.372497
vt 28.37406 2.635571
vt -6.246859 27.7289
vt 20.42415 -0.4787245
vt 20.42415 -2.931674
vt -21.47343 2.295629
vt -21.47343 -0.157321
vt -18.68946 -2.29563
vt -18.68946 0.157321
vt 18.61445 0.4787235
vt 18.61445 2.931674
vt 28.36913 -2.210527
vt 0.4083192 -27.70972
vt 6.153941 27.88538
vt -28.45902 2.781387

vn 0.5855075 0 0.810667
vn 0.03224664 -0.9976516 0.06042651
vn 0.03186291 -0.9973885 0.06467318
vn 0.03147918 -0.9971254 0.06891984
vn 0.7266266 0 -0.6870326
vn -0.8050612 0 0.5931919
vn -0.03657144 0.9972035 -0.06517492
vn -0.03235393 0.9973686 -0.06473847
vn -0.02813642 0.9975337 -0.06430202

g Lower City Pass 3
usemtl ProBuilderDefault
f 3/3/1 4/4/1 2/2/1 1/1/1
f 1/7/3 2/8/4 6/6/3 5/5/2
f 3/11/5 1/12/5 5/10/5 7/9/5
f 2/15/6 4/16/6 8/14/6 6/13/6
f 4/19/8 3/20/9 7/18/8 8/17/7

