# ProBuilder 4.0.5
# https://unity3d.com/unity/features/worldbuilding/probuilder
# 6/1/2019 8:11:24 PM

mtllib ./Bay_View_2.mtl
o Bay View 2

g Bay View 2
v 321.2 15 -394.9357
v 0.9080811 15 -394.9357
v 321.2 16 -394.9357
v 0.9080811 16 -394.9357
v 0.9080811 15 -563.3
v 0.9080811 16 -563.3
v 321.2 15 -563.3
v 321.2 16 -563.3

vt 0 0
vt -320.2919 0
vt 0 1
vt -320.2919 1
vt 167.3643 0
vt -1 0
vt 167.3643 1
vt -1 1
vt 320.2919 0
vt 320.2919 1
vt 1 0
vt -167.3643 0
vt 1 1
vt -167.3643 1
vt 0 167.3643
vt 320.2919 167.3643
vt 0 -1
vt 320.2919 -1
vt -320.2919 -1
vt -320.2919 167.3643

vn 0 0 1
vn -1 0 0
vn 0 0 -1
vn 1 0 0
vn 0 1 0
vn 0 -1 0

g Bay View 2
usemtl ProBuilderDefault
f 3/3/1 4/4/1 2/2/1 1/1/1
f 4/7/2 6/8/2 5/6/2 2/5/2
f 6/10/3 8/3/3 7/1/3 5/9/3
f 8/13/4 3/14/4 1/12/4 7/11/4
f 8/17/5 6/18/5 4/16/5 3/15/5
f 1/15/6 2/20/6 5/19/6 7/17/6

