# ProBuilder 4.0.5
# https://unity3d.com/unity/features/worldbuilding/probuilder
# 6/1/2019 8:10:51 PM

mtllib ./Downtown.mtl
o Downtown

g Downtown
v -59.17445 5.123405 396.5849
v 23.81557 5.123405 196.7802
v 23.81555 28.07 196.7802
v -59.17443 28.07 396.5849
v 92.03387 5.123405 32.81863
v 92.03385 28.07 32.81864
v 596.774 4.774284 -16.14532
v 594.2288 5.123405 344.1038
v 594.2288 28.07 344.1038
v 596.7739 27.72088 -16.14531
v 598.4311 5.123405 465.5363
v 598.4311 66.63964 465.5363
v 170.8578 5.123405 420.4794
v 170.8578 47.35482 420.4795
v 245.4142 5.123405 -14.72177
v 245.4141 28.07 -14.72175
v 272.4395 28.07 258.9777
v 272.4395 5.123405 258.9777
v 54.93563 5.123405 411.4234
v 54.93561 37.71241 411.4235
v 130.131 28.07 15.187
v 130.1311 5.123405 15.18698
v 148.1275 28.07 227.879
v 148.1276 5.123405 227.879

vt 298.4222 -30.75797
vt 82.06771 -30.75797
vt 82.06772 -7.811379
vt 298.4221 -7.811379
vt -95.51927 -30.75797
vt -95.51926 -7.811379
vt 224.7298 -31.10724
vt -135.4501 -30.75812
vt -135.4501 -7.811523
vt 224.7298 -8.160645
vt -256.929 -30.75812
vt -256.929 30.75812
vt 346.2702 -30.75817
vt -83.67033 -30.75817
vt -83.67035 11.47325
vt 346.2702 30.75807
vt -21.6425 -30.7582
vt -364.0247 -31.10729
vt -364.0246 -8.160701
vt -21.64247 -7.811609
vt -9.380772 44.83365
vt -341.6011 29.38692
vt -383.5263 145.1381
vt 38.39399 229.9162
vt 98.15808 -207.979
vt -236.3809 -314.8243
vt 342.2415 30.1209
vt 236.9412 -314.4045
vt -97.91486 -207.9752
vt 9.721125 45.11823
vt 382.5648 144.7401
vt -38.91667 229.6068
vt -199.906 -30.75817
vt -199.9061 1.830839
vt -314.9402 -30.75817
vt -314.9402 -7.81157
vt 97.42508 -7.811608
vt 97.42505 -30.7582
vt 138.544 -7.811605
vt 138.544 -30.7582
vt 265.6601 275.5678
vt 246.2349 60.17494
vt 118.4271 52.5043
vt 152.027 255.7703
vt 230.184 -116.6132
vt 199.1307 -144.8586
vt -230.06 -116.7433
vt -246.1255 60.11554
vt -118.2022 52.61688
vt -198.9787 -144.9607
vt -152.2424 255.6306
vt -265.5682 275.5946

vn -0.9235063 -3.90897E-07 -0.3835835
vn -0.9232748 -5.870471E-07 -0.3841402
vn 0.9999751 2.93245E-06 0.007065039
vn 0.9994018 0 -0.03458565
vn -0.1047979 -3.542048E-07 0.9944936
vn -0.004051511 9.653268E-07 -0.9999918
vn 0.02514733 0.9696305 -0.2207418
vn 0.08049051 0.9491804 -0.3042661
vn -0.03019584 0.9900806 -0.1372175
vn 0.0009932307 0.9999995 -9.807268E-05
vn 0.0006245603 0.9999995 -0.0005326872
vn 0.00025589 0.9999995 -0.0009673019
vn -0.0002558899 -0.9999995 0.0009673019
vn -0.0006245603 -0.9999995 0.0005326873
vn -0.0009932306 -0.9999995 9.807262E-05
vn 0 -1 0
vn -0.07788415 -7.358762E-07 0.9969624
vn -0.1289513 2.343834E-07 0.9916509
vn -0.2511238 6.007971E-07 -0.9679551
vn -0.4200068 5.377043E-07 -0.9075209
vn -0.07987043 0.9962531 -0.03317463
vn -0.03411134 0.9975504 -0.03986729
vn 0.01164776 0.9988476 -0.04655995
vn -0.02493127 0.9937093 -0.0965564
vn 0.02566616 0.9943919 -0.1025961
vn -0.07552869 0.9930267 -0.09051667
vn 0 1 0

g Downtown
usemtl ProBuilderDefault
f 4/4/1 3/3/1 2/2/1 1/1/1
f 3/3/2 6/6/2 5/5/2 2/2/2
f 7/7/3 10/10/3 9/9/3 8/8/3
f 8/8/4 9/9/4 12/12/4 11/11/4
f 14/15/5 13/14/5 11/13/5 12/16/5
f 15/17/6 16/20/6 10/19/6 7/18/6
f 12/23/7 9/22/8 17/21/7 14/24/9
f 9/22/12 10/26/11 16/25/10 17/21/11
f 15/29/15 7/28/14 8/27/13 18/30/14
f 13/32/16 18/30/16 8/27/16 11/31/16
f 20/34/17 19/33/17 13/14/17 14/15/17
f 20/34/18 4/36/18 1/35/18 19/33/18
f 21/37/19 16/20/19 15/17/19 22/38/19
f 6/39/20 21/37/20 22/38/20 5/40/20
f 20/44/22 23/43/23 3/42/22 4/41/21
f 14/24/24 17/21/25 23/43/24 20/44/26
f 3/42/27 23/43/27 21/46/27 6/45/27
f 23/43/27 17/21/27 16/25/27 21/46/27
f 22/50/16 24/49/16 2/48/16 5/47/16
f 22/50/16 15/29/16 18/30/16 24/49/16
f 19/51/16 24/49/16 18/30/16 13/32/16
f 1/52/16 2/48/16 24/49/16 19/51/16

