# ProBuilder 4.0.5
# https://unity3d.com/unity/features/worldbuilding/probuilder
# 6/1/2019 8:11:01 PM

mtllib ./Hotel_District.mtl
o Hotel District

g Hotel District
v -209.1154 21.38083 579.1572
v -563.234 21.38083 365.5393
v -209.1154 48.73254 579.1573
v -563.234 57.64392 365.5393
v -249.0452 21.38083 54.66031
v 15.53057 21.38083 214.2628
v -249.0452 48.73254 54.66034
v 15.53059 48.73254 214.2628
v -421.9229 21.38083 200.5787
v -421.9229 48.73254 200.5788
v -68.24816 21.38083 413.929
v -68.24816 48.73254 413.929

vt 171.2472 -13.67538
vt -242.3137 -13.67538
vt 171.2472 13.67634
vt -242.3137 22.58771
vt 133.8636 -13.67622
vt -175.1239 -13.67622
vt 133.8636 13.6755
vt -175.1239 13.6755
vt 266.8479 -13.67608
vt 50.34366 -13.6761
vt 50.34369 13.67561
vt 266.848 22.58701
vt -175.1473 -13.67608
vt -175.1473 13.67563
vt 215.7807 -13.67565
vt 1.824291 -13.67561
vt 1.824245 13.67611
vt 215.7807 13.67607
vt -212.7211 -13.67565
vt -212.7211 13.67607
vt -171.0901 214.4982
vt 242.5429 214.5829
vt 206.6565 0.2174038
vt -206.3621 0.3018771
vt 134.003 -213.9713
vt -174.9666 -213.9081
vt 175.124 -214.2421
vt -133.8635 -214.2422
vt -206.5213 -1.525879E-05
vt 206.5213 7.629395E-06
vt -242.3137 214.2422
vt 171.2472 214.2422

vn -0.5165333 -2.231493E-06 0.8562671
vn 0.5165337 1.67362E-06 -0.8562669
vn -0.7594469 1.161208E-06 -0.6505694
vn -0.6450074 7.120909E-07 -0.7641762
vn 0.9221157 -1.023062E-06 0.3869142
vn 0.7609767 -1.372818E-06 0.6487793
vn 0.01902008 0.9995237 -0.01069161
vn 0.03804016 0.9990474 -0.02138323
vn 0 1 0
vn 0 -1 0

g Hotel District
usemtl ProBuilderDefault
f 3/3/1 4/4/1 2/2/1 1/1/1
f 7/7/2 8/8/2 6/6/2 5/5/2
f 10/11/3 9/10/3 2/9/3 4/12/3
f 7/14/4 5/13/4 9/10/4 10/11/4
f 12/17/5 11/16/5 6/15/5 8/18/5
f 3/20/6 1/19/6 11/16/6 12/17/6
f 3/21/7 12/24/9 10/23/7 4/22/8
f 12/24/9 8/26/9 7/25/9 10/23/9
f 9/29/10 5/28/10 6/27/10 11/30/10
f 2/31/10 9/29/10 11/30/10 1/32/10

