# ProBuilder 4.0.5
# https://unity3d.com/unity/features/worldbuilding/probuilder
# 6/1/2019 8:11:11 PM

mtllib ./Mid_City_Crossroads_2.mtl
o Mid City Crossroads 2

g Mid City Crossroads 2
v 30.76776 10.47033 -161.6
v -90.67645 10.47033 -170.8037
v 30.76776 18.76967 -161.6
v -90.67645 18.76967 -170.8037
v -42.28326 10.47033 -393.7186
v -42.28326 18.76967 -393.7186
v 33.80648 10.47033 -388.8016
v 33.80648 18.76967 -388.8016

vt 63.9691 -4.149671
vt -57.82337 -4.149671
vt 63.9691 4.14967
vt -57.82337 4.14967
vt 68.03681 -4.149671
vt -160.0705 -4.149671
vt 68.03681 4.14967
vt -160.0705 4.14967
vt 24.57607 -4.149671
vt -51.67237 -4.149671
vt 24.57607 4.14967
vt -51.67237 4.14967
vt 162.7063 -4.149671
vt -64.51558 -4.149671
vt 162.7063 4.14967
vt -64.51558 4.14967
vt -59.20275 65.31316
vt 62.24147 56.10945
vt -62.24147 -161.8884
vt 13.84827 -166.8054
vt 62.24147 -161.8884
vt -13.84827 -166.8054
vt 59.20275 65.31316
vt -62.24147 56.10945

vn -0.07556876 0 0.9971406
vn -0.9772369 0 -0.212151
vn 0.06448606 0 -0.9979186
vn 0.9999106 0 0.01337335
vn 0 1 0
vn 0 -1 0

g Mid City Crossroads 2
usemtl ProBuilderDefault
f 3/3/1 4/4/1 2/2/1 1/1/1
f 4/7/2 6/8/2 5/6/2 2/5/2
f 6/11/3 8/12/3 7/10/3 5/9/3
f 8/15/4 3/16/4 1/14/4 7/13/4
f 8/19/5 6/20/5 4/18/5 3/17/5
f 1/23/6 2/24/6 5/22/6 7/21/6

