# ProBuilder 4.0.5
# https://unity3d.com/unity/features/worldbuilding/probuilder
# 6/1/2019 8:11:56 PM

mtllib ./Outskirts_3.mtl
o Outskirts 3

g Outskirts 3
v -223.1129 37.82673 595.3313
v -597.5413 24.6814 585.6011
v -223.1129 55.542 595.3313
v -599.9824 55.542 585.6011
v -599.9824 37.82673 368.7898
v -599.9824 55.542 368.7898
v -223.1129 37.82673 579.1802
v -223.1129 55.542 579.1802

vt 314.4679 -8.573273
vt -60.08688 -21.7186
vt 314.4679 9.141998
vt -62.52722 9.141998
vt 24.00803 -16.84888
vt -192.8146 -3.662498
vt 23.99225 14.10811
vt -192.8146 13.99761
vt 148.9574 -8.573273
vt -282.6614 -8.573273
vt 148.9574 9.141998
vt -282.6614 9.141998
vt -17.98016 -8.573273
vt -34.13129 -8.573273
vt -17.98016 9.141998
vt -34.13129 9.141998
vt -313.6871 34.13129
vt 63.18243 24.40112
vt -313.6871 17.98016
vt 63.18243 -192.4102
vt 313.6871 17.98016
vt -63.18243 -192.4102
vt 313.6871 34.13129
vt -60.74127 24.40112

vn -0.02597794 0 0.9996625
vn -0.02589384 -0.001020812 0.9996637
vn -0.02580973 -0.002041624 0.9996648
vn -0.9968653 -0.07885492 0.006443095
vn -0.9984326 -0.03942746 0.003221547
vn -1 0 0
vn 0.4874449 0 -0.8731537
vn 1 0 0
vn 0 1 0
vn 0 -1 0
vn 0.01830066 -0.9987366 -0.03044457
vn 0.03660131 -0.9974732 -0.06088914

g Outskirts 3
usemtl ProBuilderDefault
f 3/3/2 4/4/3 2/2/2 1/1/1
f 4/7/5 6/8/6 5/6/5 2/5/4
f 6/11/7 8/12/7 7/10/7 5/9/7
f 8/15/8 3/16/8 1/14/8 7/13/8
f 8/19/9 6/20/9 4/18/9 3/17/9
f 1/23/11 2/24/12 5/22/11 7/21/10

