# ProBuilder 4.0.5
# https://unity3d.com/unity/features/worldbuilding/probuilder
# 6/1/2019 8:11:50 PM

mtllib ./Outskirts_2.mtl
o Outskirts 2

g Outskirts 2
v 595.9931 8.172256 599.5983
v -1 38.63295 599.5983
v 595.9931 52.65 599.5983
v -1 52.65 599.5983
v -57.73846 20.52638 405.4329
v 595.9931 8.172256 468.071
v -57.73848 52.65 405.4329
v 595.9931 52.65 468.071
v -217.7158 29.57967 595.7383
v -217.7158 52.65 595.7383
v 595.9931 8.172256 533.8347
v 595.9931 52.65 533.8347

vt 595.9931 -43.47775
vt -1 -13.01705
vt 595.9931 1
vt -1 1
vt 63.15672 -31.12362
vt -593.5688 -43.47775
vt 63.15673 0.9999976
vt -593.5688 0.9999976
vt 122.1002 -13.01703
vt 28.84001 -22.07023
vt 28.84001 1.000107
vt 122.1002 1.000024
vt -78.13004 -31.12361
vt -78.13004 1.000012
vt -3.071014 -43.47775
vt -68.83467 -43.47775
vt -68.83467 1
vt -3.071014 1
vt -134.5983 -43.47775
vt -134.5983 1
vt -595.9931 134.5983
vt 1 134.5983
vt 217.7158 130.7383
vt -595.9931 68.83467
vt 57.73848 -59.56714
vt -595.9931 3.071014
vt 597.2278 3.071014
vt -56.49302 -59.56714
vt -216.7007 130.7383
vt 597.2278 68.83467
vt -0.4963888 134.5983
vt 597.2278 134.5983

vn 0 0 1
vn 0.09537949 4.530546E-08 -0.995441
vn -0.01780874 0 0.9998415
vn -0.7654656 -1.817989E-07 -0.6434768
vn 1 0 0
vn 0 1 0
vn -0.02399625 -0.9994946 0.01465237
vn -0.02169317 -0.9993351 0.02930474
vn -0.02629934 -0.9996541 0
vn 0.02335616 -0.8093283 0.586892
vn -0.01380054 -0.9040146 0.293446
vn -0.05095724 -0.9987009 0

g Outskirts 2
usemtl ProBuilderDefault
f 3/3/1 4/4/1 2/2/1 1/1/1
f 7/7/2 8/8/2 6/6/2 5/5/2
f 4/12/3 10/11/3 9/10/3 2/9/3
f 10/11/4 7/14/4 5/13/4 9/10/4
f 6/15/5 8/18/5 12/17/5 11/16/5
f 11/16/5 12/17/5 3/20/5 1/19/5
f 3/21/6 12/24/6 10/23/6 4/22/6
f 10/23/6 12/24/6 8/26/6 7/25/6
f 9/29/7 5/28/8 6/27/7 11/30/9
f 9/29/10 11/30/11 1/32/12 2/31/11

