# ProBuilder 4.0.5
# https://unity3d.com/unity/features/worldbuilding/probuilder
# 6/1/2019 8:11:34 PM

mtllib ./Outskirts_1.mtl
o Outskirts 1

g Outskirts 1
v -573.0369 39.08719 363.5291
v -599.5007 47.54077 363.5291
v -574.4316 56.56595 363.5291
v -599.5007 80.69 363.5291
v -599.5007 37.97067 -600.2841
v 17.08966 13.97971 -600.2841
v -599.5007 80.69 -600.2841
v 17.08966 31.27533 -600.2841
v -599.5007 47.54077 92.44116
v -599.5007 37.97067 -253.9214
v -599.5007 80.69 -253.9214
v -599.5007 80.69 92.44116
v -119.3335 13.97971 -130.6349
v -119.3335 40.39264 -130.6349
v -345.2239 23.5498 92.44116
v -345.2239 44.58197 92.44116

vt -269.8369 -40.60281
vt -296.3007 -32.14923
vt -271.2316 -23.12405
vt -296.3007 1
vt 296.3007 -41.71933
vt -320.2897 -65.7103
vt 296.3007 1
vt -320.2897 -48.41467
vt 613.4412 -32.14923
vt 267.0786 -41.71933
vt 267.0786 1
vt 613.4412 1
vt -79.28406 -41.71933
vt -79.28406 1
vt 232.0151 -65.7103
vt -241.2959 -65.7103
vt -241.2959 -39.29736
vt 232.0151 -48.41467
vt -548.5446 -56.1402
vt -548.5446 -35.10803
vt 39.2695 614.2714
vt 295.5395 613.796
vt 295.5395 267.5702
vt -186.2979 390.9243
vt 295.5395 -78.65554
vt -323.0205 -78.57169
vt 324.1866 -79.8611
vt -292.5323 -80.14199
vt -292.5323 266.1879
vt 188.1168 389.6087
vt -293.2206 612.649
vt -37.87685 612.5714
vt -36.56469 614.6031
vt -291.9707 614.6031
vt -264.8298 885.756
vt -291.9707 885.6263
vt -495.5741 -35.10803
vt -495.5741 -56.1402
vt -850.5739 -23.12405
vt -849.6734 -40.60281
vt 884.5291 -32.14923
vt 884.5291 1
vt 293.4983 613.4412
vt 36.67057 613.4412
vt 293.4983 884.5291
vt 265.2866 884.5291

vn 0 0 1
vn 0 0 -1
vn -1 0 0
vn 0.960306 0 0.2789487
vn 0.7026605 0 0.7115253
vn 0.1053776 0.9931145 0.02617008
vn 0.1405925 0.9900675 0
vn 0.07016275 0.9961615 0.05234016
vn 0.08362963 0.9964969 0
vn 0.08175737 0.9966468 0.001927054
vn 0.0798851 0.9967966 0.003854108
vn -0.03887719 -0.9991802 -0.01129301
vn -0.04438936 -0.9989672 -0.005646503
vn -0.04990153 -0.9987541 0
vn -0.07111785 -0.9970073 0.0106995
vn -0.09389714 -0.9952021 0.02749772
vn -0.04833855 -0.9988124 -0.006098727
vn -0.09391019 -0.9953404 -0.02187102
vn -0.1991007 -0.9739597 -0.01093551
vn -0.3042913 -0.952579 0
vn 0.7636285 0 0.6456559
vn 0.7647434 0.03055711 0.6428771
vn 0.7658585 0.06111421 0.6400983
vn 0.3735107 0.8101257 0.2424418
vn 0.606429 0.6301838 0.4848837

g Outskirts 1
usemtl ProBuilderDefault
f 3/3/1 4/4/1 2/2/1 1/1/1
f 7/7/2 8/8/2 6/6/2 5/5/2
f 12/12/3 11/11/3 10/10/3 9/9/3
f 11/11/3 7/14/3 5/13/3 10/10/3
f 6/15/4 8/18/4 14/17/4 13/16/4
f 13/16/5 14/17/5 16/20/5 15/19/5
f 12/22/7 16/21/6 14/24/8 11/23/6
f 11/23/9 14/24/10 8/26/11 7/25/10
f 6/27/12 13/30/13 10/29/14 5/28/13
f 13/30/17 15/32/15 9/31/16 10/29/15
f 1/35/19 2/36/20 9/34/19 15/33/18
f 3/39/22 1/40/23 15/38/22 16/37/21
f 2/41/3 4/42/3 12/12/3 9/9/3
f 4/45/24 3/46/25 16/44/24 12/43/7

