# ProBuilder 4.0.5
# https://unity3d.com/unity/features/worldbuilding/probuilder
# 6/1/2019 8:10:56 PM

mtllib ./Shopping_District.mtl
o Shopping District

g Shopping District
v 36.12634 13.8867 163.9605
v 6.865028 13.8867 207.2338
v 36.12634 27.7232 163.9605
v 6.865028 27.7232 207.2338
v -84.35275 13.8867 -169.1586
v 28.70335 13.8867 -159.7086
v -84.35275 27.7232 -169.1586
v 28.70335 27.7232 -159.7086
v -201.4489 13.8867 -2.599026
v -201.4489 27.7232 -2.599026
v 53.2763 13.8867 -42.16157
v 53.2763 27.7232 -42.16157
v -244.4023 13.8867 53.28719
v -244.4023 27.7232 53.28719
v 58.24938 27.7232 60.89947
v 58.24938 13.8867 60.89947

vt -47.67888 -6.918251
vt -99.9168 -6.918251
vt -47.67888 6.918251
vt -99.9168 6.918251
vt 6.982681 -6.918251
vt -106.4677 -6.918251
vt 6.982681 6.918251
vt -106.4677 6.918251
vt -4.723327 -6.918251
vt -187.3009 -6.918251
vt -187.3009 6.918251
vt -4.723327 6.918251
vt 176.958 -6.918251
vt 59.06636 -6.918251
vt 59.06636 6.918251
vt 176.958 6.918251
vt 108.3724 -21.63663
vt -8.723709 -188.1962
vt -121.7798 -178.7462
vt -146.3528 -61.19918
vt 121.7798 -178.7462
vt 8.723709 -188.1962
vt -108.3724 -21.63663
vt 146.3528 -61.19918
vt 170.5997 -6.918251
vt 57.10057 -6.918251
vt 57.10057 6.918251
vt 170.5997 6.918251
vt -146.7848 -6.918251
vt -146.7848 6.918251
vt -44.05605 6.918251
vt -44.05605 -6.918251
vt -151.3258 41.86186
vt 151.3258 34.24958
vt -129.2028 144.9229
vt -99.94148 188.1962
vt 129.2028 144.9229
vt 151.3258 41.86186
vt -151.3258 34.24958
vt 99.94148 188.1962

vn 0.8283881 0 0.5601546
vn 0.08329645 0 -0.9965248
vn -0.8180662 0 -0.5751241
vn 0.9788406 0 -0.2046245
vn 0 1 0
vn 0 -1 0
vn -0.522424 0 0.8526858
vn -0.7928706 0 -0.60939
vn 0.9777275 0 0.2098786
vn 0.9988378 0 -0.04819769

g Shopping District
usemtl ProBuilderDefault
f 3/3/1 4/4/1 2/2/1 1/1/1
f 7/7/2 8/8/2 6/6/2 5/5/2
f 10/12/3 7/11/3 5/10/3 9/9/3
f 6/13/4 8/16/4 12/15/4 11/14/4
f 10/17/5 12/20/5 8/19/5 7/18/5
f 9/23/6 5/22/6 6/21/6 11/24/6
f 4/28/7 14/27/7 13/26/7 2/25/7
f 14/27/8 10/12/8 9/9/8 13/26/8
f 16/32/9 15/31/9 3/30/9 1/29/9
f 11/14/10 12/15/10 15/31/10 16/32/10
f 12/20/5 10/17/5 14/34/5 15/33/5
f 15/33/5 14/34/5 4/36/5 3/35/5
f 2/40/6 13/39/6 16/38/6 1/37/6
f 13/39/6 9/23/6 11/24/6 16/38/6

