# ProBuilder 4.0.5
# https://unity3d.com/unity/features/worldbuilding/probuilder
# 6/2/2019 1:14:11 AM

mtllib ./Bay_View_Street_4.mtl
o Bay_View_Street 4

g Bay_View_Street 4
v -142.8042 30.48549 164.2819
v -148.9811 30.48549 189.7719
v -95.00476 27.16188 190.4912
v -110.4571 27.16188 208.6459
v -142.8042 32.88723 164.2819
v -95.00476 29.56363 190.4912
v -148.9811 32.88723 189.7719
v -110.4571 29.56363 208.6459

vt -20.80043 -22.16744
vt -26.96572 3.325362
vt 27.11286 4.044771
vt 11.68955 22.21147
vt 28.91291 2.862675
vt 28.91291 0.4609261
vt -25.60054 -0.4609261
vt -25.60054 -2.862675
vt -22.78041 0.4609261
vt -22.78041 2.862675
vt 20.11862 -2.862675
vt 20.11862 -0.4609261
vt 27.12839 3.292926
vt 20.96978 -22.20149
vt -11.53713 22.17018
vt -26.94372 3.996548

vn -0.06125489 -0.9980118 -0.01484367
vn -0.06097287 -0.9974154 -0.03325034
vn -0.06069084 -0.996819 -0.05165702
vn 0.4807863 0 -0.8768378
vn -0.4399628 0 0.898016
vn 0.07687622 0.9968666 0.01862913
vn 0.06209591 0.9974672 0.0294509
vn 0.04731559 0.9980678 0.04027268

g Bay_View_Street 4
usemtl ProBuilderDefault
f 3/3/2 4/4/3 2/2/2 1/1/1
f 6/7/4 3/8/4 1/6/4 5/5/4
f 4/11/5 8/12/5 7/10/5 2/9/5
f 8/15/7 6/16/8 5/14/7 7/13/6

