# ProBuilder 4.0.5
# https://unity3d.com/unity/features/worldbuilding/probuilder
# 6/2/2019 1:13:51 AM

mtllib ./Bay_View_Street_2.mtl
o Bay_View_Street 2

g Bay_View_Street 2
v -244.6988 39.03 381.1653
v -267.6475 39.03 367.5711
v -244.6988 41.43175 381.1653
v -267.6475 41.43175 367.5711
v -242.3744 38.06406 287.0093
v -216.5136 38.06406 296.3507
v -213.7451 34.58558 199.1873
v -191.2158 34.58558 211.8369
v -242.3744 40.46581 287.0093
v -213.7451 36.98732 199.1873
v -216.5136 40.46581 296.3507
v -191.2158 36.98732 211.8369
v -265.8553 38.54703 342.8386
v -265.8553 40.94878 342.8386
v -216.2092 38.54703 359.0297
v -216.2092 40.94878 359.0297

vt 33.238 1.021339
vt 6.565095 1.021339
vt 33.238 3.423088
vt 6.565095 3.423088
vt -12.94238 -3.168911
vt 12.91629 6.178382
vt 15.72911 -91.04598
vt 38.25655 -78.39413
vt 1.000428 2.457146
vt 1.000428 0.05539703
vt -91.37021 -1.021336
vt -91.37021 -3.423084
vt -2.210716 0.05539703
vt -2.210716 2.457146
vt 86.00813 -3.423084
vt 86.00813 -1.021336
vt -12.88393 6.267802
vt 12.97453 -3.080069
vt -38.22613 -78.30429
vt -15.69887 -90.95635
vt 84.17034 1.021339
vt 59.7012 0.5383682
vt 59.7012 2.940117
vt 84.17034 3.423088
vt -0.06323752 0.05539703
vt -0.06323752 2.457146
vt 0.09782026 0.05539703
vt -56.13432 0.5383682
vt -56.13432 2.940117
vt 0.09782026 2.457146
vt -88.50137 1.021339
vt -88.50137 3.423088
vt 15.28227 91.02554
vt 38.23076 77.43126
vt 36.43636 52.69459
vt -13.20925 68.88724
vt 12.95358 -3.134822
vt -12.90696 6.207319
vt 12.91763 6.175323
vt -12.94285 -3.166916
vt -36.4258 52.66327
vt 13.21971 68.85604
vt -38.22042 77.39933
vt -15.27198 90.9939

vn -0.5096602 0 0.8603758
vn -0.01279097 -0.999291 0.03541049
vn -0.0162796 -0.9992378 0.03530918
vn -0.01976824 -0.9991845 0.03520787
vn -0.9507563 0 -0.3099396
vn 0.9580019 0 0.2867619
vn 0.01340622 0.9992211 -0.03711374
vn 0.0160953 0.9992424 -0.03528467
vn 0.01878439 0.9992636 -0.03345559
vn -0.9973847 0 -0.07227641
vn -0.9217902 0 -0.3876891
vn 0.9999883 0 -0.004857368
vn 0.6135418 0 0.7896623
vn 0.007332827 0.9998965 -0.01237881
vn 0.006776573 0.9998477 -0.01572594
vn 0.006220318 0.9997987 -0.01907307
vn 0.002614771 0.9999676 -0.007613563
vn -0.002614771 -0.9999676 0.007613563
vn -0.006220318 -0.9997987 0.01907307
vn -0.006776573 -0.9998477 0.01572594
vn -0.007332827 -0.9998965 0.01237881

g Bay_View_Street 2
usemtl ProBuilderDefault
f 3/3/1 4/4/1 2/2/1 1/1/1
f 7/7/3 8/8/4 6/6/3 5/5/2
f 10/11/5 7/12/5 5/10/5 9/9/5
f 8/15/6 12/16/6 11/14/6 6/13/6
f 12/19/8 10/20/9 9/18/8 11/17/7
f 4/24/10 14/23/10 13/22/10 2/21/10
f 14/23/11 9/26/11 5/25/11 13/22/11
f 6/27/12 11/30/12 16/29/12 15/28/12
f 15/28/13 16/29/13 3/32/13 1/31/13
f 3/33/14 16/36/15 14/35/16 4/34/15
f 16/36/17 11/38/17 9/37/17 14/35/17
f 13/41/18 5/40/18 6/39/18 15/42/18
f 2/43/20 13/41/19 15/42/20 1/44/21

