# ProBuilder 4.0.5
# https://unity3d.com/unity/features/worldbuilding/probuilder
# 6/2/2019 12:31:36 AM

mtllib ./Bay_View_Beltway_18.mtl
o Bay View Beltway 18

g Bay View Beltway 18
v -402.2753 38.69055 256.12
v -402.1445 38.69055 255.12
v -402.2753 41.44 256.12
v -402.1445 41.44 255.12
v -375.6454 38.69055 255.12
v -375.6454 38.69055 256.12
v -375.6454 41.44 255.12
v -375.6454 41.44 256.12
v -373.6953 38.69055 271.8786
v -400.5158 38.69055 271.8786
v -373.6953 41.44 271.8786
v -400.5158 41.44 271.8786
v -395.0157 37.33798 227.2271
v -371.8801 37.33798 238.5353
v -395.0157 40.08743 227.2271
v -371.8801 40.08743 238.5353
v -376.7318 35.28305 199.2769
v -356.8518 35.28305 216.2857
v -376.7318 38.0325 199.2769
v -356.8518 38.0325 216.2857
v -360.1684 34.1067 181.8563
v -341.05 34.1067 200.4095
v -360.1684 36.85615 181.8563
v -341.05 36.85615 200.4095
v -230.6984 22.89611 64.7677
v -210.5124 22.89611 83.32089
v -230.6984 25.64556 64.7677
v -210.5124 25.64556 83.32089

vt 99.49306 6.522499
vt 98.48455 6.522499
vt 99.49306 9.271946
vt 98.48455 9.271946
vt -86.79686 6.522499
vt -87.79686 6.522499
vt -86.79686 9.271946
vt -87.79686 9.271946
vt 69.25153 87.79686
vt 95.88147 87.79686
vt 69.25153 86.79686
vt 95.75064 86.79686
vt -69.25153 86.79686
vt -95.75064 86.79686
vt -69.25153 87.79686
vt -95.88147 87.79686
vt -67.30151 103.5554
vt -94.12201 103.5554
vt -78.62778 9.271946
vt -78.62778 6.522499
vt -94.50655 9.271946
vt -94.50655 6.522499
vt 76.61554 6.522499
vt 76.61554 9.271946
vt 92.47203 6.522499
vt 92.47203 9.271946
vt 94.12201 103.5554
vt 67.30151 103.5554
vt -95.75064 87.01091
vt -69.25153 87.01091
vt -88.62192 59.08528
vt -65.48627 70.38013
vt 107.8033 9.271946
vt 107.8033 6.522499
vt 79.01385 7.919376
vt 79.01385 5.16993
vt -99.975 6.522499
vt -99.975 9.271946
vt -82.96822 5.16993
vt -82.96822 7.919376
vt 69.25153 87.26331
vt 95.75064 87.26331
vt 65.48627 70.62351
vt 88.62192 59.35281
vt -88.7298 58.96611
vt -65.60272 70.29176
vt -70.39664 30.97253
vt -50.52407 47.98513
vt 97.80842 7.919376
vt 97.80842 5.16993
vt 64.40898 5.864445
vt 64.40898 3.114998
vt -94.83756 5.16993
vt -94.83756 7.919376
vt -67.98811 3.114998
vt -67.98811 5.864445
vt 65.7172 70.43784
vt 88.83954 59.10252
vt 50.62786 48.13475
vt 70.49637 31.12006
vt -70.40144 30.96482
vt -50.53158 47.98541
vt -53.80903 13.53219
vt -34.70034 32.09517
vt 70.89901 5.864445
vt 70.89901 3.114998
vt 46.86111 4.688099
vt 46.86111 1.938652
vt -69.58949 3.114998
vt -69.58949 5.864445
vt -47.1897 1.938652
vt -47.1897 4.688099
vt 50.6291 48.08946
vt 70.4974 31.06705
vt 34.79631 32.20057
vt 53.90349 13.63607
vt -53.80744 13.49708
vt -34.70824 32.07
vt 76.03464 -103.7161
vt 96.20046 -85.14096
vt 48.96098 4.688099
vt 48.96098 1.938652
vt -125.6019 -6.522495
vt -125.6019 -9.271942
vt -47.22319 1.938652
vt -47.22319 4.688099
vt 128.1331 -9.271942
vt 128.1331 -6.522495
vt 34.83075 32.19657
vt 53.93011 13.62382
vt -96.07693 -85.01553
vt -75.91093 -103.5905

vn -0.9915503 0 -0.1297234
vn 1 0 0
vn 0 1 0
vn 0 -1 0
vn 0.9924307 0 -0.1228063
vn -0.9938247 0 0.1109615
vn 0 -0.9988263 0.0484347
vn -0.01788067 -0.9977524 0.06079999
vn -0.03576133 -0.9966785 0.07316527
vn -0.9688582 0 -0.2476162
vn 0.9751837 0 0.2213975
vn 0 0.9966909 -0.08128523
vn 0.01052265 0.9977709 -0.06217124
vn 0.02104529 0.9988509 -0.04305724
vn -0.02717685 -0.9980831 0.055602
vn -0.03855406 -0.9975647 0.05698089
vn -0.04993127 -0.9970462 0.05835978
vn -0.8368486 0 -0.5474343
vn 0.8286789 0 0.5597243
vn 0.03383719 0.9970268 -0.0692286
vn 0.03704514 0.9975541 -0.05813824
vn 0.04025309 0.9980813 -0.04704789
vn -0.03181991 -0.9988014 0.03719118
vn -0.03417281 -0.9987125 0.0374148
vn -0.03652571 -0.9986237 0.03763842
vn -0.7247123 0 -0.6890516
vn 0.7087659 0 0.7054437
vn 0.03419059 0.998616 -0.03996203
vn 0.03411619 0.9987103 -0.03752044
vn 0.0340418 0.9988046 -0.03507885
vn -0.04472734 -0.9979355 0.0460899
vn -0.04405073 -0.9979396 0.0466407
vn -0.04337412 -0.9979438 0.0471915
vn -0.670753 0 -0.7416808
vn 0.6677183 0 0.744414
vn 0.04453801 0.9979529 -0.04589481
vn 0.04404584 0.9979398 -0.04664082
vn 0.04355367 0.9979267 -0.04738684

g Bay View Beltway 18
usemtl ProBuilderDefault
f 3/3/1 4/4/1 2/2/1 1/1/1
f 7/7/2 8/8/2 6/6/2 5/5/2
f 7/11/3 4/12/3 3/10/3 8/9/3
f 6/15/4 1/16/4 2/14/4 5/13/4
f 9/17/4 10/18/4 1/16/4 6/15/4
f 11/21/5 9/22/5 6/20/5 8/19/5
f 10/25/6 12/26/6 3/24/6 1/23/6
f 12/27/3 11/28/3 8/9/3 3/10/3
f 13/31/8 14/32/9 5/30/8 2/29/7
f 15/35/10 13/36/10 2/34/10 4/33/10
f 14/39/11 16/40/11 7/38/11 5/37/11
f 16/43/13 15/44/14 4/42/13 7/41/12
f 17/47/16 18/48/17 14/46/16 13/45/15
f 19/51/18 17/52/18 13/50/18 15/49/18
f 18/55/19 20/56/19 16/54/19 14/53/19
f 20/59/21 19/60/22 15/58/21 16/57/20
f 21/63/24 22/64/25 18/62/24 17/61/23
f 23/67/26 21/68/26 17/66/26 19/65/26
f 22/71/27 24/72/27 20/70/27 18/69/27
f 24/75/29 23/76/30 19/74/29 20/73/28
f 25/79/32 26/80/33 22/78/32 21/77/31
f 27/83/34 25/84/34 21/82/34 23/81/34
f 26/87/35 28/88/35 24/86/35 22/85/35
f 28/91/37 27/92/38 23/90/37 24/89/36

