# ProBuilder 4.0.5
# https://unity3d.com/unity/features/worldbuilding/probuilder
# 6/2/2019 12:30:12 AM

mtllib ./Bay_View_Beltway_8.mtl
o Bay View Beltway 8

g Bay View Beltway 8
v 399.2755 4.835609 -263.8292
v 371.0334 4.835609 -258.7491
v 402.6242 5.465927 -217.9166
v 374.9868 5.465927 -218.6239
v 399.2755 7.58506 -263.8292
v 402.6242 8.215378 -217.9166
v 371.0334 7.58506 -258.7491
v 374.9868 8.215378 -218.6239
v 402.6242 5.465927 -199.8762
v 374.9868 5.465927 -200.5836
v 402.6242 8.215378 -199.8762
v 374.9868 8.215378 -200.5836

vt 12.44253 -31.99687
vt -15.79945 -26.91633
vt 15.79275 13.91997
vt -11.84462 13.21364
vt 30.98638 1.059566
vt 30.98638 -1.689884
vt -15.04821 1.689884
vt -15.04821 -1.059566
vt -28.31555 -1.689884
vt -28.31555 1.059566
vt 12.00397 -1.059566
vt 12.00397 1.689884
vt 15.79238 -26.87619
vt -12.44958 -31.95687
vt 11.83733 13.25383
vt -15.80001 13.95987
vt 15.79538 13.93613
vt -11.84207 13.22882
vt 15.79538 31.9765
vt -11.84207 31.26917
vt -13.93613 1.689884
vt -13.93613 -1.059566
vt -31.9765 1.689884
vt -31.9765 -1.059566
vt 13.22882 -1.059566
vt 13.22882 1.689884
vt 31.26917 -1.059566
vt 31.26917 1.689884
vt 11.84207 13.22882
vt -15.79538 13.93613
vt 11.84207 31.26917
vt -15.79538 31.9765

vn 0.002437246 -0.9999052 0.01354957
vn 0.001017129 -0.9998906 0.01464804
vn -0.0004029894 -0.999876 0.01574651
vn 0.9973507 0 -0.072743
vn -0.9951816 0 0.09804948
vn -0.002776087 0.999877 -0.01543331
vn -0.001212058 0.9998912 -0.01459316
vn 0.0003519711 0.9999053 -0.01375301
vn 0 -1 0
vn 1 0 0
vn -1 0 0
vn 0 1 0

g Bay View Beltway 8
usemtl ProBuilderDefault
f 3/3/2 4/4/3 2/2/2 1/1/1
f 6/7/4 3/8/4 1/6/4 5/5/4
f 4/11/5 8/12/5 7/10/5 2/9/5
f 8/15/7 6/16/8 5/14/7 7/13/6
f 9/19/9 10/20/9 4/18/9 3/17/9
f 11/23/10 9/24/10 3/22/10 6/21/10
f 10/27/11 12/28/11 8/26/11 4/25/11
f 12/31/12 11/32/12 6/30/12 8/29/12

