# ProBuilder 4.0.5
# https://unity3d.com/unity/features/worldbuilding/probuilder
# 6/2/2019 12:29:59 AM

mtllib ./Bay_View_Beltway_7.mtl
o Bay View Beltway 7

g Bay View Beltway 7
v 402.6242 5.465927 -199.8762
v 374.9868 5.465927 -200.5836
v 397.3965 6.823013 -149.7863
v 370.1387 6.823013 -152.7137
v 402.6242 8.215378 -199.8762
v 397.3965 9.572464 -149.7863
v 374.9868 8.215378 -200.5836
v 370.1387 9.572464 -152.7137
v 388.59 6.823013 -113.69
v 359.5982 6.823013 -116.6173
v 388.59 9.572464 -113.69
v 359.5982 9.572464 -116.6173
v 371.4825 6.806412 -69.67865
v 343.1185 6.806412 -75.61597
v 371.4825 9.555862 -69.67865
v 343.1185 9.555862 -75.61597

vt 29.75425 -64.7764
vt 2.116807 -65.48399
vt 24.52559 -14.66821
vt -2.732153 -17.59499
vt 67.4838 0.6961823
vt 67.4838 -2.053268
vt 17.12182 2.053268
vt 17.12182 -0.6961823
vt -65.3325 -2.053268
vt -65.3325 0.6961823
vt -17.21773 -0.6961823
vt -17.21773 2.053268
vt -2.114883 -65.40659
vt -29.75233 -64.69897
vt 2.734121 -17.51755
vt -24.52362 -14.59082
vt 24.52512 -14.65521
vt -2.732635 -17.58255
vt 15.71866 21.44113
vt -13.27316 18.51379
vt 20.05053 2.053268
vt 20.05053 -0.6961823
vt -17.10455 2.053268
vt -17.10455 -0.6961823
vt -16.11172 -0.6961823
vt -16.11172 2.053268
vt 21.49213 -0.6961823
vt 21.49213 2.053268
vt 2.732635 -17.58255
vt -24.52512 -14.65521
vt 13.27316 18.51379
vt -15.71866 21.44113
vt -13.27319 18.51405
vt -1.388912 65.45271
vt -29.75286 59.51539
vt -14.28959 2.053268
vt -14.28959 -0.6961823
vt -61.50891 2.036667
vt -61.50891 -0.7127838
vt 22.12818 -0.6961823
vt 22.12818 2.053268
vt 66.31744 -0.7127838
vt 66.31744 2.036667
vt 13.27308 18.51299
vt -15.71874 21.44033
vt 29.75276 59.51434
vt 1.388806 65.45166

vn -0.0006913026 -0.9996349 0.02701097
vn -0.001850965 -0.9996187 0.02752213
vn -0.003010627 -0.9996025 0.0280333
vn 0.9945979 0 0.103803
vn -0.9949108 0 -0.1007596
vn 0.0007233943 0.9996002 -0.02826487
vn 0.001799872 0.9996186 -0.02752393
vn 0.00287635 0.9996371 -0.02678298
vn 0 -1 0
vn 0.971505 0 0.237019
vn -0.9599112 0 -0.2803046
vn 0 1 0
vn 3.664903E-05 -0.9999999 -0.0003629654
vn 0.9320616 0 0.3622997
vn -0.9278579 0 -0.372934
vn -3.928903E-05 0.9999999 0.0003891114

g Bay View Beltway 7
usemtl ProBuilderDefault
f 3/3/2 4/4/3 2/2/2 1/1/1
f 6/7/4 3/8/4 1/6/4 5/5/4
f 4/11/5 8/12/5 7/10/5 2/9/5
f 8/15/7 6/16/8 5/14/7 7/13/6
f 9/19/9 10/20/9 4/18/9 3/17/9
f 11/23/10 9/24/10 3/22/10 6/21/10
f 10/27/11 12/28/11 8/26/11 4/25/11
f 12/31/12 11/32/12 6/30/12 8/29/12
f 13/34/13 14/35/13 10/33/13 9/19/13
f 15/38/14 13/39/14 9/37/14 11/36/14
f 14/42/15 16/43/15 12/41/15 10/40/15
f 16/46/16 15/47/16 11/45/16 12/44/16

