# ProBuilder 4.0.5
# https://unity3d.com/unity/features/worldbuilding/probuilder
# 6/2/2019 12:29:20 AM

mtllib ./Bay_View_Beltway_4.mtl
o Bay View Beltway 4

g Bay View Beltway 4
v 441.4962 15.57187 189.5516
v 411.0087 15.57187 196.2835
v 445.3101 18.0952 243.2862
v 403.4238 18.0952 238.9684
v 441.4962 18.32132 189.5516
v 445.3101 20.84465 243.2862
v 411.0087 18.32132 196.2835
v 403.4238 20.84465 238.9684
v 440.1999 18.76612 263.8016
v 397.5512 18.76612 253.6608
v 440.1999 21.51557 263.8016
v 397.5512 21.51557 253.6608
v 418.1653 19.83787 292.5551
v 388.0961 19.83787 265.5014
v 418.1653 22.58732 292.5551
v 388.0961 22.58732 265.5014
v 386.6916 20.16964 306.3774
v 374.5097 20.16964 273.733
v 386.6916 22.91909 306.3774
v 374.5097 22.91909 273.733

vt 31.54709 -58.5351
vt 1.061195 -51.79599
vt 35.38662 -4.743117
vt -6.49755 -9.036542
vt 56.03001 -0.9241638
vt 56.03001 -3.673615
vt 2.160234 1.599174
vt 2.160234 -1.150276
vt -51.0761 -3.673615
vt -51.0761 -0.9241638
vt -7.722548 -1.150276
vt -7.722548 1.599174
vt -1.086099 -51.64109
vt -31.57077 -58.38574
vt 6.463821 -8.875497
vt -35.41867 -4.600809
vt 35.4038 -4.708872
vt -6.482329 -9.028846
vt 30.29139 15.81698
vt -12.35706 5.67681
vt 13.09604 1.599174
vt 13.09604 -1.150276
vt -8.046268 2.270088
vt -8.046268 -0.4793625
vt -5.946163 -1.150276
vt -5.946163 1.599174
vt 9.876358 -0.4793625
vt 9.876358 2.270088
vt 6.493309 -8.918658
vt -35.39262 -4.596728
vt 12.36884 5.787817
vt -30.27941 15.92738
vt 30.29272 15.82131
vt -12.35476 5.67542
vt 8.250759 44.58905
vt -21.81761 17.54173
vt 5.853729 2.270088
vt 5.853729 -0.4793625
vt -30.3717 3.341843
vt -30.3717 0.592392
vt 12.16298 -0.4793625
vt 12.16298 2.270088
vt 27.31553 0.592392
vt 27.31553 3.341843
vt 12.39774 5.835052
vt -30.24397 16.0052
vt 21.87065 17.7099
vt -8.193645 44.72688
vt 8.251029 44.59432
vt -21.81743 17.53983
vt -23.22429 58.41707
vt -35.40586 25.77306
vt -10.37132 3.341843
vt -10.37132 0.592392
vt -44.74651 3.673615
vt -44.74651 0.9241638
vt 27.74401 0.592392
vt 27.74401 3.341843
vt 43.62955 0.9241638
vt 43.62955 3.673615
vt 21.86022 17.58364
vt -8.205792 44.64085
vt 35.45004 25.81635
vt 23.26945 58.45929

vn 0.01019762 -0.9988809 0.04618293
vn 0.002111791 -0.9985912 0.05206823
vn -0.005974035 -0.9983014 0.05795352
vn 0.9974906 0 -0.07079972
vn -0.9845765 0 -0.1749545
vn -0.01355944 0.9980206 -0.06140793
vn -0.004344274 0.9984459 -0.05432997
vn 0.004870889 0.9988711 -0.04725201
vn -0.003285038 -0.9994867 0.03186782
vn -0.006595718 -0.9992846 0.03676523
vn -0.009906398 -0.9990826 0.04166264
vn 0.9703494 0 0.2417063
vn -0.9285722 0 -0.3711519
vn 0.004516545 0.9990295 -0.04381455
vn 0.005927012 0.9992632 -0.03733664
vn 0.007337479 0.9994968 -0.03085872
vn -0.007492902 -0.9994753 0.03151238
vn -0.02738226 -0.9984873 0.04202659
vn -0.04727162 -0.9974993 0.05254081
vn 0.7937365 0 0.6082618
vn -0.7814301 0 -0.6239929
vn 0.01803288 0.996957 -0.07583964
vn 0.01893701 0.9982585 -0.04894619
vn 0.01984113 0.9995599 -0.02205274
vn -0.007083175 -0.9999439 0.007872708
vn -0.01349754 -0.999859 0.007651615
vn -0.01991191 -0.9997741 0.007430521
vn 0.4021018 0 0.915595
vn -0.5181834 0 -0.8552695
vn 0.01458914 0.9997621 -0.01621534
vn 0.01182282 0.9998577 -0.009797476
vn 0.009056505 0.9999533 -0.003379614

g Bay View Beltway 4
usemtl ProBuilderDefault
f 3/3/2 4/4/3 2/2/2 1/1/1
f 6/7/4 3/8/4 1/6/4 5/5/4
f 4/11/5 8/12/5 7/10/5 2/9/5
f 8/15/7 6/16/8 5/14/7 7/13/6
f 9/19/10 10/20/11 4/18/10 3/17/9
f 11/23/12 9/24/12 3/22/12 6/21/12
f 10/27/13 12/28/13 8/26/13 4/25/13
f 12/31/15 11/32/16 6/30/15 8/29/14
f 13/35/18 14/36/19 10/34/18 9/33/17
f 15/39/20 13/40/20 9/38/20 11/37/20
f 14/43/21 16/44/21 12/42/21 10/41/21
f 16/47/23 15/48/24 11/46/23 12/45/22
f 17/51/26 18/52/27 14/50/26 13/49/25
f 19/55/28 17/56/28 13/54/28 15/53/28
f 18/59/29 20/60/29 16/58/29 14/57/29
f 20/63/31 19/64/32 15/62/31 16/61/30

