# ProBuilder 4.0.5
# https://unity3d.com/unity/features/worldbuilding/probuilder
# 6/2/2019 12:29:44 AM

mtllib ./Bay_View_Beltway_6.mtl
o Bay View Beltway 6

g Bay View Beltway 6
v 371.4825 6.806412 -69.67865
v 343.1185 6.806412 -75.61597
v 368.3012 7.156937 -35.27072
v 340.6226 7.156937 -35.43866
v 371.4825 9.555862 -69.67865
v 368.3012 9.906387 -35.27072
v 343.1185 9.555862 -75.61597
v 340.6226 9.906387 -35.43866
v 370.5016 7.970184 -16.61371
v 343.261 7.970184 -13.07837
v 370.5016 10.71964 -16.61371
v 343.261 10.71964 -13.07837
v 376.8068 8.542557 4.932465
v 349.5662 8.542557 12.95529
v 376.8068 11.29201 4.932465
v 349.5662 11.29201 12.95529

vt 12.77242 -38.36854
vt -15.59146 -44.30616
vt 9.590425 -3.958897
vt -18.0881 -4.127405
vt 39.36091 0.5066528
vt 39.36091 -2.242798
vt 4.806229 0.8571777
vt 4.806229 -1.892273
vt -43.23341 -2.242798
vt -43.23341 0.5066528
vt -2.978655 -1.892273
vt -2.978655 0.8571777
vt 15.59708 -44.27987
vt -12.76683 -38.34233
vt 18.09362 -4.101068
vt -9.584926 -3.932707
vt 9.586987 -4.018993
vt -18.0916 -4.187091
vt 11.78715 14.65576
vt -15.45345 18.18743
vt 2.790429 0.8571777
vt 2.790429 -1.892273
vt -15.99589 1.670425
vt -15.99589 -1.079025
vt -6.20006 -1.892273
vt -6.20006 0.8571777
vt 16.31535 -1.079025
vt 16.31535 1.670425
vt 18.09229 -4.074572
vt -9.586298 -3.906522
vt 15.4541 18.30052
vt -11.7865 14.76774
vt 11.78322 14.6832
vt -15.45723 18.2197
vt 18.09032 36.23643
vt -9.15013 44.25895
vt -17.43472 1.670425
vt -17.43472 -1.079025
vt -39.88452 2.242798
vt -39.88452 -0.5066528
vt 14.10145 -1.079025
vt 14.10145 1.670425
vt 40.88778 -0.5066528
vt 40.88778 2.242798
vt 15.44906 18.28433
vt -11.79144 14.74819
vt 9.14226 44.32391
vt -18.09824 36.3013

vn -0.002091878 -0.9999479 0.00999339
vn -0.001072395 -0.9999549 0.009357112
vn -5.291314E-05 -0.999962 0.008720832
vn 0.995753 0 0.09206494
vn -0.998076 0 -0.06200287
vn 0.001802742 0.9999613 -0.008612122
vn 0.0009322577 0.9999548 -0.009396607
vn 6.177317E-05 0.9999482 -0.01018109
vn -0.000264414 -0.99905 0.04357915
vn 0.002190779 -0.9991992 0.03968871
vn 0.004645972 -0.9993483 0.03579828
vn 0.993117 0 -0.1171266
vn -0.9931107 0 0.1171805
vn 0.0002206859 0.9993383 -0.03637215
vn -0.002672967 0.9992013 -0.03963211
vn -0.005566619 0.9990642 -0.04289207
vn 0.003320395 -0.9996672 0.02558441
vn 0.00468155 -0.9997192 0.02305086
vn 0.006042704 -0.9997712 0.02051732
vn 0.9597489 0 -0.2808594
vn -0.971901 0 0.2353901
vn -0.002765774 0.9997691 -0.02131093
vn -0.004983228 0.9997221 -0.02288001
vn -0.007200682 0.9996752 -0.0244491

g Bay View Beltway 6
usemtl ProBuilderDefault
f 3/3/2 4/4/3 2/2/2 1/1/1
f 6/7/4 3/8/4 1/6/4 5/5/4
f 4/11/5 8/12/5 7/10/5 2/9/5
f 8/15/7 6/16/8 5/14/7 7/13/6
f 9/19/10 10/20/11 4/18/10 3/17/9
f 11/23/12 9/24/12 3/22/12 6/21/12
f 10/27/13 12/28/13 8/26/13 4/25/13
f 12/31/15 11/32/16 6/30/15 8/29/14
f 13/35/18 14/36/19 10/34/18 9/33/17
f 15/39/20 13/40/20 9/38/20 11/37/20
f 14/43/21 16/44/21 12/42/21 10/41/21
f 16/47/23 15/48/24 11/46/23 12/45/22

