# ProBuilder 4.0.5
# https://unity3d.com/unity/features/worldbuilding/probuilder
# 6/2/2019 12:32:14 AM

mtllib ./Bay_View_Beltway_23.mtl
o Bay View Beltway 23

g Bay View Beltway 23
v -136.3035 29.68918 396.1295
v -128.2665 29.68918 420.9895
v -104.7686 25.61417 373.8129
v -89.36206 25.61417 394.0285
v -136.3035 32.43863 396.1295
v -104.7686 28.36362 373.8129
v -128.2665 32.43863 420.9895
v -89.36206 28.36362 394.0285

vt -23.4113 -1.331586
vt -15.41845 23.54258
vt 8.376855 -23.66099
vt 23.69886 -3.402479
vt 18.42399 3.41223
vt 18.42399 0.6627827
vt -20.20869 -0.6627827
vt -20.20869 -3.41223
vt -26.12123 0.6627827
vt -26.12123 3.41223
vt 21.2122 -3.41223
vt 21.2122 -0.6627827
vt 15.66851 23.63678
vt 23.67617 -1.232616
vt -23.44175 -3.334458
vt -8.091354 -23.57858

vn -0.1045262 -0.9939479 0.03379206
vn -0.08640815 -0.9951274 0.04291828
vn -0.06829011 -0.9963071 0.0520445
vn -0.5776625 0 -0.8162757
vn 0.5695974 0 0.8219239
vn 0.08522841 0.9959804 -0.02755333
vn 0.08435589 0.9952282 -0.04558837
vn 0.08348336 0.994476 -0.06362341

g Bay View Beltway 23
usemtl ProBuilderDefault
f 3/3/2 4/4/3 2/2/2 1/1/1
f 6/7/4 3/8/4 1/6/4 5/5/4
f 4/11/5 8/12/5 7/10/5 2/9/5
f 8/15/7 6/16/8 5/14/7 7/13/6

