# ProBuilder 4.0.5
# https://unity3d.com/unity/features/worldbuilding/probuilder
# 6/2/2019 12:30:23 AM

mtllib ./Bay_View_Beltway_9.mtl
o Bay View Beltway 9

g Bay View Beltway 9
v 357.0617 3.660191 -395.2281
v 335.924 3.660191 -379.7213
v 377.9791 3.798489 -348.6466
v 352.6071 3.798489 -338.3085
v 357.0617 6.409641 -395.2281
v 377.9791 6.547939 -348.6466
v 335.924 6.409641 -379.7213
v 352.6071 6.547939 -338.3085
v 389.5095 4.835609 -311.1842
v 362.1944 4.835609 -303.522
v 389.5095 7.58506 -311.1842
v 362.1944 7.58506 -303.522
v 399.2755 4.835609 -263.8292
v 371.0334 4.835609 -258.7491
v 399.2755 7.58506 -263.8292
v 371.0334 7.58506 -258.7491

vt -10.54123 -68.24368
vt -31.67895 -52.7368
vt 10.37633 -21.66202
vt -14.99564 -11.32388
vt 66.56805 0.7870159
vt 66.56805 -1.962435
vt 15.50557 0.9253139
vt 15.50557 -1.824137
vt -60.74907 -1.962435
vt -60.74907 0.7870159
vt -16.10218 -1.824137
vt -16.10218 0.9253139
vt 31.67424 -52.73031
vt 10.53652 -68.2372
vt 14.9909 -11.31739
vt -10.38106 -21.65555
vt 10.36053 -21.69882
vt -15.01021 -11.35762
vt 21.9008 15.77491
vt -5.412951 23.44156
vt 17.64639 0.9253139
vt 17.64639 -1.824137
vt -21.55033 1.962435
vt -21.55033 -0.7870159
vt -14.89654 -1.824137
vt -14.89654 0.9253139
vt 21.187 -0.7870159
vt 21.187 1.962435
vt 14.98168 -11.28664
vt -10.38882 -21.62843
vt 5.383581 23.51241
vt -21.92992 15.84493
vt 21.90979 15.80444
vt -5.405334 23.46667
vt 31.67578 63.15942
vt 3.433716 68.2395
vt -19.90403 1.962435
vt -19.90403 -0.7870159
vt -68.25554 1.962435
vt -68.25554 -0.7870159
vt 21.9754 -0.7870159
vt 21.9754 1.962435
vt 67.6124 -0.7870159
vt 67.6124 1.962435
vt 5.405334 23.46667
vt -21.90979 15.80444
vt -3.433716 68.2395
vt -31.67578 63.15942

vn 0.001638328 -0.9999962 0.002233245
vn 0.001403587 -0.9999957 0.002550931
vn 0.9122462 0 -0.4096425
vn -0.9275626 0 0.3736679
vn -0.001891015 0.9999949 -0.00257769
vn -0.001456815 0.9999956 -0.002543711
vn 0.01001969 -0.9996474 0.02459062
vn 0.008889737 -0.9996173 0.02612676
vn 0.007759785 -0.9995872 0.0276629
vn 0.9557534 0 -0.2941689
vn -0.9640562 0 0.2656985
vn -0.01091691 0.9995814 -0.0267926
vn -0.009031502 0.9996157 -0.02613387
vn -0.007146094 0.9996499 -0.02547514
vn 0 -1 0
vn 0.9793898 0 -0.201979
vn -0.9810644 0 0.1936817
vn 0 1 0

g Bay View Beltway 9
usemtl ProBuilderDefault
f 3/3/2 4/4/2 2/2/2 1/1/1
f 6/7/3 3/8/3 1/6/3 5/5/3
f 4/11/4 8/12/4 7/10/4 2/9/4
f 8/15/6 6/16/6 5/14/6 7/13/5
f 9/19/8 10/20/9 4/18/8 3/17/7
f 11/23/10 9/24/10 3/22/10 6/21/10
f 10/27/11 12/28/11 8/26/11 4/25/11
f 12/31/13 11/32/14 6/30/13 8/29/12
f 13/35/15 14/36/15 10/34/15 9/33/15
f 15/39/16 13/40/16 9/38/16 11/37/16
f 14/43/17 16/44/17 12/42/17 10/41/17
f 16/47/18 15/48/18 11/46/18 12/45/18

