# ProBuilder 4.0.5
# https://unity3d.com/unity/features/worldbuilding/probuilder
# 6/2/2019 12:31:05 AM

mtllib ./Bay_View_Beltway_14.mtl
o Bay View Beltway 14

g Bay View Beltway 14
v -12.51703 10.39374 -337.5793
v 12.4458 10.39374 -327.5027
v -1.308899 8.642179 -369.1191
v 23.65393 8.642179 -359.0425
v -12.51703 13.14318 -337.5793
v -1.308899 11.39163 -369.1191
v 12.4458 13.14318 -327.5027
v 23.65393 11.39163 -359.0425
v 13.26724 7.011833 -396.3774
v 34.95886 7.011833 -380.467
v 13.26724 9.761282 -396.3774
v 34.95886 9.761282 -380.467
v 35.6463 6.245281 -419.2681
v 51.85104 6.245281 -398.7635
v 35.6463 8.99473 -419.2681
v 51.85104 8.99473 -398.7635

vt -32.19156 35.76724
vt -7.23353 45.85578
vt -20.95125 4.190287
vt 4.006779 14.27882
vt 44.51585 3.448951
vt 44.51585 0.6995039
vt 11.04376 1.697394
vt 11.04376 -1.052052
vt -45.652 0.6995039
vt -45.652 3.448951
vt -12.17991 -1.052052
vt -12.17991 1.697394
vt 7.287424 45.9891
vt 32.24546 35.90057
vt -3.952886 14.41215
vt 21.00515 4.323613
vt -20.95089 4.188988
vt 4.007024 14.27783
vt -6.345249 -23.10226
vt 15.3421 -7.189914
vt 13.65344 1.697394
vt 13.65344 -1.052052
vt -17.25739 0.06704998
vt -17.25739 -2.682399
vt -10.82466 -1.052052
vt -10.82466 1.697394
vt 13.39957 -2.682399
vt 13.39957 0.06704998
vt -3.942675 14.42733
vt 21.01215 4.330872
vt -15.28526 -7.039323
vt 6.399411 -22.9529
vt -6.360744 -23.04174
vt 15.32866 -7.128317
vt 16.02699 -45.93678
vt 32.23008 -25.43158
vt -11.96663 0.06704998
vt -11.96663 -2.682399
vt -43.97922 -0.699502
vt -43.97922 -3.448951
vt 15.57636 -2.682399
vt 15.57636 0.06704998
vt 40.47832 -3.448951
vt 40.47832 -0.699502
vt -15.28806 -7.070758
vt 6.399919 -22.98612
vt -32.19145 -25.37297
vt -15.98943 -45.87857

vn -0.01957837 -0.9986312 0.04850133
vn -0.9422714 0 -0.33485
vn 0.9422714 0 0.33485
vn 0.01957837 0.9986312 -0.04850133
vn -0.01982947 -0.9985958 0.04912338
vn -0.02998893 -0.9981446 0.05193007
vn -0.04014839 -0.9976934 0.05473675
vn -0.8818368 0 -0.4715546
vn 0.884427 0 0.4666787
vn 0.02526609 0.9977193 -0.06259148
vn 0.02836618 0.9981515 -0.05274569
vn 0.03146628 0.9985837 -0.0428999
vn -0.01430054 -0.9997076 0.0194968
vn -0.01936931 -0.9996113 0.0194051
vn -0.02443808 -0.9995148 0.01931339
vn -0.7150527 0 -0.6990706
vn 0.7347414 0 0.6783472
vn 0.01831359 0.9995205 -0.02496804
vn 0.01862477 0.9996146 -0.01996654
vn 0.01893594 0.9997087 -0.01496505

g Bay View Beltway 14
usemtl ProBuilderDefault
f 3/3/1 4/4/1 2/2/1 1/1/1
f 6/7/2 3/8/2 1/6/2 5/5/2
f 4/11/3 8/12/3 7/10/3 2/9/3
f 8/15/4 6/16/4 5/14/4 7/13/4
f 9/19/6 10/20/7 4/18/6 3/17/5
f 11/23/8 9/24/8 3/22/8 6/21/8
f 10/27/9 12/28/9 8/26/9 4/25/9
f 12/31/11 11/32/12 6/30/11 8/29/10
f 13/35/14 14/36/15 10/34/14 9/33/13
f 15/39/16 13/40/16 9/38/16 11/37/16
f 14/43/17 16/44/17 12/42/17 10/41/17
f 16/47/19 15/48/20 11/46/19 12/45/18

