# ProBuilder 4.0.5
# https://unity3d.com/unity/features/worldbuilding/probuilder
# 6/2/2019 12:30:48 AM

mtllib ./Bay_View_Beltway_12.mtl
o Bay View Beltway 12

g Bay View Beltway 12
v 120.4365 4.027111 -452.0074
v 121.1769 4.027111 -425.4797
v 165.5969 4.027111 -450.9639
v 163.8604 4.027111 -425.4797
v 120.4365 6.776562 -452.0074
v 165.5969 6.776562 -450.9639
v 121.1769 6.776562 -425.4797
v 163.8604 6.776562 -425.4797
v 183.0434 3.418011 -450.8422
v 181.3069 3.418011 -423.9044
v 183.0434 6.167461 -450.8422
v 181.3069 6.167461 -423.9044
v 243.2797 3.208538 -452.0435
v 241.5433 3.208538 -423.9044
v 243.2797 5.957989 -452.0435
v 241.5433 5.957989 -423.9044

vt -61.4216 -14.03354
vt -60.68118 12.49417
vt -16.26126 -12.98996
vt -17.99771 12.49417
vt 61.72941 1.784012
vt 61.72941 -0.9654388
vt 16.55702 1.784012
vt 16.55702 -0.9654388
vt -60.68118 -0.9654388
vt -60.68118 1.784012
vt -17.99771 -0.9654388
vt -17.99771 1.784012
vt 60.68118 12.49417
vt 61.4216 -14.03354
vt 17.99771 12.49417
vt 16.26126 -12.98996
vt -16.2177 -12.98628
vt -17.95309 12.49792
vt 1.239463 -12.86458
vt -0.4959313 14.0733
vt 16.35148 1.784012
vt 16.35148 -0.9654388
vt -1.095479 1.174911
vt -1.095479 -1.574539
vt -16.80116 -0.9654388
vt -16.80116 1.784012
vt 0.7163527 -1.574539
vt 0.7163527 1.174911
vt 18.04875 12.4914
vt 16.31335 -12.9928
vt 0.5915901 14.06678
vt -1.143816 -12.87109
vt 1.190747 -12.8679
vt -0.5456921 14.0699
vt 61.42744 -14.0692
vt 59.691 14.0699
vt -1.441617 1.174911
vt -1.441617 -1.574539
vt -61.68993 0.9654388
vt -61.68993 -1.784012
vt -0.551178 -1.574539
vt -0.551178 1.174911
vt 59.68515 -1.784012
vt 59.68515 0.9654388
vt 0.5552604 14.06929
vt -1.181179 -12.86852
vt -59.68143 14.06929
vt -61.41787 -14.06981

vn 0 -1 0
vn 0.02310214 0 -0.9997331
vn 0 0 1
vn 0 1 0
vn -0.03487449 -0.9993889 -0.002376295
vn 0.006975663 0 -0.9999757
vn -0.08993161 0 0.995948
vn 0.03467794 0.9993957 0.002362902
vn -0.003481969 -0.9999939 -0.0002244528
vn -0.01993905 0 -0.9998012
vn 0.003477492 0.9999939 0.0002241642

g Bay View Beltway 12
usemtl ProBuilderDefault
f 3/3/1 4/4/1 2/2/1 1/1/1
f 6/7/2 3/8/2 1/6/2 5/5/2
f 4/11/3 8/12/3 7/10/3 2/9/3
f 8/15/4 6/16/4 5/14/4 7/13/4
f 9/19/5 10/20/5 4/18/5 3/17/5
f 11/23/6 9/24/6 3/22/6 6/21/6
f 10/27/7 12/28/7 8/26/7 4/25/7
f 12/31/8 11/32/8 6/30/8 8/29/8
f 13/35/9 14/36/9 10/34/9 9/33/9
f 15/39/10 13/40/10 9/38/10 11/37/10
f 14/43/3 16/44/3 12/42/3 10/41/3
f 16/47/11 15/48/11 11/46/11 12/45/11

