# ProBuilder 4.0.5
# https://unity3d.com/unity/features/worldbuilding/probuilder
# 6/2/2019 12:29:31 AM

mtllib ./Bay_View_Beltway_5.mtl
o Bay View Beltway 5

g Bay View Beltway 5
v 376.8068 8.542557 4.932465
v 349.5662 8.542557 12.95529
v 401.5984 9.799713 58.45903
v 375.3342 9.799713 69.35095
v 376.8068 11.29201 4.932465
v 401.5984 12.54916 58.45903
v 349.5662 11.29201 12.95529
v 375.3342 12.54916 69.35095
v 420.8273 11.68909 111.1383
v 394.563 11.68909 116.7099
v 420.8273 14.43854 111.1383
v 394.563 14.43854 116.7099
v 427.5593 12.9335 140.2281
v 400.5445 12.9335 147.4604
v 427.5593 15.68295 140.2281
v 400.5445 15.68295 147.4604
v 441.4962 15.57187 189.5516
v 411.0087 15.57187 196.2835
v 441.4962 18.32132 189.5516
v 411.0087 18.32132 196.2835

vt -18.75378 -95.75376
vt -45.99387 -87.72923
vt 6.04504 -42.21577
vt -20.21876 -31.32287
vt 94.68507 -2.139929
vt 94.68507 -4.88938
vt 35.69593 -0.8827724
vt 35.69593 -3.632223
vt -98.82726 -4.88938
vt -98.82726 -2.139929
vt -36.82356 -3.632223
vt -36.82356 -0.8827724
vt 45.97658 -87.67258
vt 18.73643 -95.69696
vt 20.20179 -31.26605
vt -6.062051 -42.15885
vt 6.019837 -42.24403
vt -20.24225 -31.34683
vt 25.27152 10.46079
vt -0.9905714 16.04029
vt 37.51332 -0.8827724
vt 37.51332 -3.632223
vt -18.5657 1.006601
vt -18.5657 -1.742849
vt -36.55894 -3.632223
vt -36.55894 -0.8827724
vt 14.55489 -1.742849
vt 14.55489 1.006601
vt 20.20749 -31.25919
vt -6.054153 -42.15746
vt 0.9537903 16.12739
vt -25.30786 10.54631
vt 25.28012 10.44166
vt -0.9831789 16.01793
vt 32.02263 39.55568
vt 5.008807 46.79149
vt -15.96251 1.006601
vt -15.96251 -1.742849
vt -45.82115 2.251017
vt -45.82115 -0.4984341
vt 15.62087 -1.742849
vt 15.62087 1.006601
vt 46.94771 -0.4984341
vt 46.94771 2.251017
vt 0.959808 16.12921
vt -25.30358 10.55337
vt -5.031693 46.90293
vt -32.04561 39.66743
vt 32.01866 39.52534
vt 5.006226 46.76658
vt 45.98938 88.90973
vt 15.50459 95.6535
vt -46.83623 2.251017
vt -46.83623 -0.4984341
vt -98.09086 4.88938
vt -98.09086 2.139929
vt 46.86269 -0.4984341
vt 46.86269 2.251017
vt 96.79454 2.139929
vt 96.79454 4.88938
vt -5.043633 46.90278
vt -32.05593 39.66104
vt -15.54292 95.78954
vt -46.02755 89.04511

vn 0.00608548 -0.999768 0.02066256
vn 0.006927861 -0.9997811 0.01969968
vn 0.007770242 -0.9997942 0.01873681
vn 0.9073971 0 -0.4202745
vn -0.9095533 0 0.4155873
vn -0.005785387 0.9997903 -0.01964363
vn -0.006977072 0.9997815 -0.0196707
vn -0.008168757 0.9997727 -0.01969777
vn 0.01291081 -0.9994319 0.03113255
vn 0.01034867 -0.9993639 0.03391883
vn 0.007786531 -0.9992958 0.03670511
vn 0.9393759 0 -0.3428891
vn -0.9265397 0 0.3761972
vn -0.01415057 0.9993175 -0.03412202
vn -0.01060406 0.9993695 -0.03369537
vn -0.007057545 0.9994215 -0.03326872
vn 0.008642721 -0.9991323 0.04074112
vn 0.009466138 -0.9991702 0.03958786
vn 0.01028955 -0.9992082 0.0384346
vn 0.9742519 0 -0.2254621
vn -0.9816024 0 0.1909367
vn -0.008238104 0.9992117 -0.03883379
vn -0.00950652 0.9991717 -0.03954072
vn -0.01077494 0.9991316 -0.04024765
vn 0.0132957 -0.9986776 0.04966348
vn 0.01233651 -0.9986422 0.0505945
vn 0.01137731 -0.9986069 0.05152551
vn 0.9623217 0 -0.2719136
vn -0.9777939 0 0.2095691
vn -0.013663 0.9986034 -0.05103544
vn -0.01238296 0.9986384 -0.05065914
vn -0.01110292 0.9986733 -0.05028285

g Bay View Beltway 5
usemtl ProBuilderDefault
f 3/3/2 4/4/3 2/2/2 1/1/1
f 6/7/4 3/8/4 1/6/4 5/5/4
f 4/11/5 8/12/5 7/10/5 2/9/5
f 8/15/7 6/16/8 5/14/7 7/13/6
f 9/19/10 10/20/11 4/18/10 3/17/9
f 11/23/12 9/24/12 3/22/12 6/21/12
f 10/27/13 12/28/13 8/26/13 4/25/13
f 12/31/15 11/32/16 6/30/15 8/29/14
f 13/35/18 14/36/19 10/34/18 9/33/17
f 15/39/20 13/40/20 9/38/20 11/37/20
f 14/43/21 16/44/21 12/42/21 10/41/21
f 16/47/23 15/48/24 11/46/23 12/45/22
f 17/51/26 18/52/27 14/50/26 13/49/25
f 19/55/28 17/56/28 13/54/28 15/53/28
f 18/59/29 20/60/29 16/58/29 14/57/29
f 20/63/31 19/64/32 15/62/31 16/61/30

