# ProBuilder 4.0.5
# https://unity3d.com/unity/features/worldbuilding/probuilder
# 6/2/2019 12:32:06 AM

mtllib ./Bay_View_Beltway_22.mtl
o Bay View Beltway 22

g Bay View Beltway 22
v -196.5263 36.07438 399.5706
v -206.4703 36.07438 422.1914
v -167.5461 32.59409 399.5706
v -167.6623 32.59409 426.1609
v -196.5263 38.82382 399.5706
v -167.5461 35.34354 399.5706
v -206.4703 38.82382 422.1914
v -167.6623 35.34354 426.1609
v -136.3035 29.68918 396.1295
v -128.2665 29.68918 420.9895
v -136.3035 32.43863 396.1295
v -128.2665 32.43863 420.9895

vt -29.1666 -11.4713
vt -39.03969 11.18054
vt 0.02184138 -11.47127
vt -0.09354052 15.08333
vt 29.15786 4.567322
vt 29.15786 1.817875
vt 0.177655 1.08704
vt 0.177655 -1.662407
vt -37.77491 1.817875
vt -37.77491 4.567322
vt 1.235615 -1.662407
vt 1.235615 1.08704
vt 39.34921 10.99298
vt 29.4416 -11.64379
vt 0.3857262 14.96535
vt 0.2699409 -11.60659
vt -0.02290037 -11.57397
vt -0.1386117 15.01637
vt 31.35447 -15.01504
vt 39.35685 9.844612
vt -1.090597 1.08704
vt -1.090597 -1.662407
vt -32.52214 -1.817871
vt -32.52214 -4.567318
vt -2.245685 -1.662407
vt -2.245685 1.08704
vt 37.48804 -4.567318
vt 37.48804 -1.817871
vt 0.3730406 15.01534
vt 0.2571446 -11.57499
vt -39.12967 9.843896
vt -31.11452 -15.01587

vn -0.1190714 -0.991505 -0.05234345
vn -0.1041764 -0.9937557 -0.02636682
vn -0.08928137 -0.9960064 -0.0003901972
vn 1.053049E-06 0 -1
vn -0.1017565 0 0.9948093
vn 0.08544584 0.9956346 0.03756173
vn 0.1023404 0.9942502 0.01904142
vn 0.1192349 0.9928659 0.0005211068
vn -0.092624 -0.9957011 -0.0004048058
vn -0.08158209 -0.9964746 0.0112
vn -0.07054018 -0.9972482 0.0228048
vn -0.1094783 0 -0.9939892
vn 0.1301526 0 0.991494
vn 0.07357899 0.9972894 0.0003215712
vn 0.0814821 0.9964336 -0.0142878
vn 0.08938521 0.9955778 -0.02889717

g Bay View Beltway 22
usemtl ProBuilderDefault
f 3/3/2 4/4/3 2/2/2 1/1/1
f 6/7/4 3/8/4 1/6/4 5/5/4
f 4/11/5 8/12/5 7/10/5 2/9/5
f 8/15/7 6/16/8 5/14/7 7/13/6
f 9/19/10 10/20/11 4/18/10 3/17/9
f 11/23/12 9/24/12 3/22/12 6/21/12
f 10/27/13 12/28/13 8/26/13 4/25/13
f 12/31/15 11/32/16 6/30/15 8/29/14

