# ProBuilder 4.0.5
# https://unity3d.com/unity/features/worldbuilding/probuilder
# 6/2/2019 12:31:29 AM

mtllib ./Bay_View_Beltway_17.mtl
o Bay View Beltway 17

g Bay View Beltway 17
v -230.6984 22.89611 64.7677
v -210.5124 22.89611 83.32089
v -187.7523 18.82951 18.9785
v -167.5724 18.82951 37.53169
v -230.6984 25.64556 64.7677
v -187.7523 21.57896 18.9785
v -210.5124 25.64556 83.32089
v -167.5724 21.57896 37.53169
v -167.2879 18.18396 -8.618103
v -143.0013 18.18396 4.869598
v -167.2879 20.9334 -8.618103
v -143.0013 20.9334 4.869598
v -132.5974 20.47249 -72.11258
v -109.5134 20.47249 -58.62491
v -132.5974 23.22193 -72.11258
v -109.5134 23.22193 -58.62491
v -119.5883 20.47249 -94.88928
v -96.50433 20.47249 -81.40161
v -119.5883 23.22193 -94.88928
v -96.50433 23.22193 -81.40161

vt -67.07565 70.37873
vt -46.90895 88.95297
vt -23.99266 24.53758
vt -3.832124 43.11181
vt 97.36081 3.730801
vt 97.36081 0.9813538
vt 34.58329 -0.3357983
vt 34.58329 -3.085245
vt -97.08592 0.9813538
vt -97.08592 3.730801
vt -34.31262 -3.085245
vt -34.31262 -0.3357983
vt 47.02937 89.0837
vt 67.19607 70.50945
vt 3.952536 43.24254
vt 24.11307 24.66831
vt -24.10953 24.7131
vt -3.931278 43.26809
vt -3.638501 -2.886169
vt 20.64615 10.60455
vt 34.27601 -0.3357983
vt 34.27601 -3.085245
vt -0.08044739 -0.9813519
vt -0.08044739 -3.730799
vt -37.00199 -3.085245
vt -37.00199 -0.3357983
vt 3.870441 -3.730799
vt 3.870441 -0.9813519
vt 3.967218 43.30851
vt 24.14595 24.75405
vt -20.60948 10.64419
vt 3.675755 -2.845641
vt -3.743361 -2.731287
vt 20.54041 10.76157
vt 30.9782 -66.25003
vt 54.05943 -52.75772
vt -0.7193975 -0.9813519
vt -0.7193975 -3.730799
vt -73.07256 1.307177
vt -73.07256 -1.44227
vt 0.1866162 -3.730799
vt 0.1866162 -0.9813519
vt 71.97092 -1.44227
vt 71.97092 1.307177
vt -20.58247 10.68588
vt 3.701258 -2.807057
vt -54.1017 -52.83329
vt -31.02052 -66.32568
vt 31.004 -66.32838
vt 54.08795 -52.84071
vt 44.01306 -89.10509
vt 67.09705 -75.61742
vt -72.97269 1.307177
vt -72.97269 -1.44227
vt -99.20271 1.307177
vt -99.20271 -1.44227
vt 72.7095 -1.44227
vt 72.7095 1.307177
vt 98.93953 -1.44227
vt 98.93953 1.307177
vt -54.08795 -52.84071
vt -31.004 -66.32838
vt -67.09705 -75.61742
vt -44.01306 -89.10509

vn -0.04374585 -0.9979083 0.04759593
vn -0.7293884 0 -0.6840998
vn 0.7294374 0 0.6840475
vn 0.04374874 0.997908 -0.04759908
vn -0.01278585 -0.9998215 0.01390689
vn -0.01026339 -0.9998472 0.0139228
vn -0.007740934 -0.9998729 0.01393872
vn -0.8032436 0 -0.5956507
vn 0.7991229 0 0.6011677
vn 0.0107405 0.9998741 -0.01168221
vn 0.009970251 0.9998473 -0.0141241
vn 0.009199998 0.9998205 -0.01656598
vn 0.01534932 -0.9995001 -0.02763876
vn 0.01571982 -0.9994957 -0.02758856
vn 0.01609032 -0.9994913 -0.02753836
vn -0.8775633 0 -0.4794608
vn 0.884518 0 0.4665062
vn -0.01547407 0.999492 0.0278634
vn -0.01571478 0.9994959 0.02758549
vn -0.01595548 0.9994997 0.02730757
vn 0 -1 0
vn -0.8683449 0 -0.4959609
vn 0.8683444 0 0.4959618
vn 0 1 0

g Bay View Beltway 17
usemtl ProBuilderDefault
f 3/3/1 4/4/1 2/2/1 1/1/1
f 6/7/2 3/8/2 1/6/2 5/5/2
f 4/11/3 8/12/3 7/10/3 2/9/3
f 8/15/4 6/16/4 5/14/4 7/13/4
f 9/19/6 10/20/7 4/18/6 3/17/5
f 11/23/8 9/24/8 3/22/8 6/21/8
f 10/27/9 12/28/9 8/26/9 4/25/9
f 12/31/11 11/32/12 6/30/11 8/29/10
f 13/35/14 14/36/15 10/34/14 9/33/13
f 15/39/16 13/40/16 9/38/16 11/37/16
f 14/43/17 16/44/17 12/42/17 10/41/17
f 16/47/19 15/48/20 11/46/19 12/45/18
f 17/51/21 18/52/21 14/50/21 13/49/21
f 19/55/22 17/56/22 13/54/22 15/53/22
f 18/59/23 20/60/23 16/58/23 14/57/23
f 20/63/24 19/64/24 15/62/24 16/61/24

