# ProBuilder 4.0.5
# https://unity3d.com/unity/features/worldbuilding/probuilder
# 6/2/2019 12:29:05 AM

mtllib ./Bay_View_Beltway_3.mtl
o Bay View Beltway 3

g Bay View Beltway 3
v 386.6916 20.16964 306.3774
v 376.0648 20.16964 279.8971
v 333.1291 20.16964 319.5011
v 328.0219 20.16964 285.0996
v 386.6916 22.91909 306.3774
v 333.1291 22.91909 319.5011
v 376.0648 22.91909 279.8971
v 328.0219 22.91909 285.0996
v 272.6835 19.92707 327.9221
v 270.5218 19.92707 294.3932
v 272.6835 22.67653 327.9221
v 270.5218 22.67653 294.3932
v 146.8628 19.60683 340.6793
v 144.701 19.60683 313.351
v 117.7944 19.42733 344.2733
v 115.6326 19.42733 316.0067
v 146.8628 22.35628 340.6793
v 117.7944 22.17678 344.2733
v 144.701 22.35628 313.351
v 115.6326 22.17678 316.0067
v 64.88751 19.42733 347.9794
v 68.03925 19.42733 319.9679
v 64.88751 22.17678 347.9794
v 68.03925 22.17678 319.9679
v 158.0093 19.76695 307.1918
v 167.0671 19.76695 336.644
v 167.0671 22.5164 336.644
v 158.0093 22.5164 307.1918

vt 160.902 -7.560883
vt 150.2753 -34.04117
vt 107.3395 5.562866
vt 102.2324 -28.83868
vt 158.0787 1.745884
vt 158.0787 -1.003567
vt 102.9319 1.745884
vt 102.9319 -1.003567
vt -153.0667 -1.003567
vt -153.0667 1.745884
vt -104.7429 -1.003567
vt -104.7429 1.745884
vt -150.2753 -34.04117
vt -160.902 -7.560883
vt -102.2324 -28.83868
vt -107.3395 5.562866
vt 107.3348 5.563697
vt 102.2276 -28.83786
vt 46.88872 13.98463
vt 44.72699 -19.54427
vt 105.5452 1.745884
vt 105.5452 -1.003567
vt 44.51593 1.503315
vt 44.51593 -1.246136
vt -105.524 -1.003567
vt -105.524 1.745884
vt -47.27771 -1.246136
vt -47.27771 1.503315
vt -102.2387 -28.83949
vt -107.3458 5.562068
vt -44.73805 -19.54591
vt -46.89978 13.98299
vt -78.93486 26.74158
vt -81.09657 -0.5867929
vt -108.0038 30.33551
vt -110.1655 2.068908
vt -81.61154 1.183071
vt -81.61154 -1.56638
vt -110.9013 1.003567
vt -110.9013 -1.745884
vt 80.69875 -1.56638
vt 80.69875 1.183071
vt 109.8882 -1.745884
vt 109.8882 1.003567
vt 81.07973 -0.5881255
vt 78.91802 26.74025
vt 110.1487 2.067575
vt 107.987 30.33418
vt -107.9952 30.33499
vt -110.1569 2.06839
vt -160.902 34.04117
vt -157.7503 6.029602
vt -109.851 1.003567
vt -109.851 -1.745884
vt -162.8875 1.003567
vt -162.8875 -1.745884
vt 109.9489 -1.745884
vt 109.9489 1.003567
vt 157.7068 -1.745884
vt 157.7068 1.003567
vt 110.1569 2.06839
vt 107.9952 30.33499
vt 157.7503 6.029602
vt 160.902 34.04117
vt 46.8877 13.98458
vt 44.72598 -19.54432
vt -67.78606 -6.745874
vt -58.7283 22.70632
vt -81.09489 -0.5866729
vt -78.93317 26.7417
vt 44.48866 1.503315
vt 44.48866 -1.246136
vt -61.31292 -1.406258
vt -61.31292 1.343193
vt -81.88241 -1.56638
vt -81.88241 1.183071
vt -48.34785 -1.246136
vt -48.34785 1.503315
vt 63.44221 1.343193
vt 63.44221 -1.406258
vt 77.91908 1.183071
vt 77.91908 -1.56638
vt -44.74042 -19.54714
vt -46.90213 13.98174
vt 58.71334 22.70287
vt 67.77104 -6.749361
vt 78.91828 26.73827
vt 81.07999 -0.5900863

vn 0 -1 0
vn 0.2379782 0 0.9712705
vn -0.1076589 0 -0.9941879
vn 0 1 0
vn 0.003931668 -0.9999921 -0.0005836867
vn 0.004053353 -0.9999917 -0.0004264341
vn 0.1379817 0 0.9904348
vn -0.1595565 0 -0.9871888
vn -0.004119694 0.9999913 0.0006116006
vn -0.004048477 0.9999917 0.0004340153
vn -0.00397726 0.9999921 0.0002564299
vn 0.006115314 -0.9999812 -0.0004837368
vn 0.1227028 0 0.9924434
vn -0.09098142 0 -0.9958525
vn -0.006130814 0.9999811 0.0004849629
vn 0.06987973 0 0.9975554
vn -0.08294351 0 -0.9965543
vn 0.001445652 -0.9999989 -0.0002728992
vn 0.01053201 -0.9999393 -0.003239062
vn 0.009166814 -0.9999543 -0.001928095
vn 0.007801623 -0.9999694 -0.0006171282
vn 0.08230101 0 0.9966075
vn 0.1958581 0 0.9806322
vn -0.1130242 0 -0.9935923
vn -0.4200075 0 -0.9075207
vn -0.001412785 0.999999 9.108792E-05
vn -0.009166814 0.9999543 0.001928095
vn -0.007801623 0.9999694 0.0006171282
vn -0.01053201 0.9999393 0.003239062

g Bay View Beltway 3
usemtl ProBuilderDefault
f 3/3/1 4/4/1 2/2/1 1/1/1
f 6/7/2 3/8/2 1/6/2 5/5/2
f 4/11/3 8/12/3 7/10/3 2/9/3
f 8/15/4 6/16/4 5/14/4 7/13/4
f 9/19/6 10/20/6 4/18/6 3/17/5
f 11/23/7 9/24/7 3/22/7 6/21/7
f 10/27/8 12/28/8 8/26/8 4/25/8
f 12/31/10 11/32/11 6/30/10 8/29/9
f 15/35/12 16/36/12 14/34/12 13/33/12
f 18/39/13 15/40/13 13/38/13 17/37/13
f 16/43/14 20/44/14 19/42/14 14/41/14
f 20/47/15 18/48/15 17/46/15 19/45/15
f 21/51/1 22/52/1 16/50/1 15/49/1
f 23/55/16 21/56/16 15/54/16 18/53/16
f 22/59/17 24/60/17 20/58/17 16/57/17
f 24/63/4 23/64/4 18/62/4 20/61/4
f 25/67/18 10/66/18 9/65/18 26/68/18
f 14/69/20 25/67/19 26/68/20 13/70/21
f 11/71/22 27/74/22 26/73/22 9/72/22
f 27/74/23 17/76/23 13/75/23 26/73/23
f 25/80/24 28/79/24 12/78/24 10/77/24
f 14/82/25 19/81/25 28/79/25 25/80/25
f 27/85/26 11/84/26 12/83/26 28/86/26
f 17/87/28 27/85/27 28/86/29 19/88/27

