# ProBuilder 4.0.5
# https://unity3d.com/unity/features/worldbuilding/probuilder
# 6/2/2019 11:07:24 PM

mtllib ./West_City_Drive_4.mtl
o West City Drive 4

g West City Drive 4
v 144.3545 19.75974 313.0552
v 116.9952 19.75974 315.329
v 144.3545 22.25 313.0552
v 116.9952 22.25 315.329
v 116.9952 19.75974 314.329
v 116.9952 22.25 314.329
v 144.3545 19.75974 312.0552
v 144.3545 22.25 312.0552
v 119.7923 19.75974 280.6366
v 151.0889 19.75974 289.1645
v 119.7923 22.25 280.6366
v 151.0889 22.25 289.1645
v 134.8408 20.33723 243.3466
v 164.6872 20.33723 251.8745
v 134.8408 22.82748 243.3466
v 164.6872 22.82748 251.8745
v 142.6744 20.33723 222.1111
v 172.5208 20.33723 230.639
v 142.6744 22.82748 222.1111
v 172.5208 22.82748 230.639

vt -4.074158 -1.533869
vt -31.52775 -1.533869
vt -4.074158 0.9563866
vt -31.52775 0.9563866
vt 46.60895 -1.533869
vt 45.60895 -1.533869
vt 46.60895 0.9563866
vt 45.60895 0.9563866
vt -43.33511 -1.533869
vt -44.33511 -1.533869
vt -43.33511 0.9563866
vt -44.33511 0.9563866
vt 0.4035034 44.33511
vt 27.76276 46.60895
vt 0.4035034 43.33511
vt 27.76276 45.60895
vt -0.4035034 43.33511
vt -27.76276 45.60895
vt -0.4035034 44.33511
vt -27.76276 46.60895
vt -24.96565 11.91653
vt 6.330887 20.4444
vt 47.74952 0.9563866
vt 47.74952 -1.533869
vt 13.9412 0.9563866
vt 13.9412 -1.533869
vt -41.6872 -1.533869
vt -41.6872 0.9563866
vt -17.82642 -1.533869
vt -17.82642 0.9563866
vt -6.330887 20.4444
vt 24.96565 11.91653
vt -24.9713 11.93545
vt 6.32501 20.46414
vt -9.92074 -25.35816
vt 19.92539 -16.82954
vt 20.39351 0.9563866
vt 20.39351 -1.533869
vt -19.81842 1.533871
vt -19.81842 -0.9563847
vt -17.03824 -1.533869
vt -17.03824 0.9563866
vt 22.65377 -0.9563847
vt 22.65377 1.533871
vt -6.334511 20.42924
vt 24.9618 11.90053
vt -19.93491 -16.86444
vt 9.911215 -25.39307
vt -9.917175 -25.37344
vt 19.92917 -16.84558
vt -2.083572 -46.60893
vt 27.76277 -38.08107
vt -20.37308 1.533871
vt -20.37308 -0.9563847
vt -43.00737 1.533871
vt -43.00737 -0.9563847
vt 22.70189 -0.9563847
vt 22.70189 1.533871
vt 45.33619 -0.9563847
vt 45.33619 1.533871
vt -19.92917 -16.84558
vt 9.917175 -25.37344
vt -27.76277 -38.08107
vt 2.083572 -46.60893

vn 0.08282467 0 0.9965641
vn -1 0 0
vn 1 0 0
vn 0 1 0
vn 0 -1 0
vn -0.9965717 0 -0.08273441
vn 0.9593448 0 0.2822368
vn 0.003801353 -0.9998955 -0.01395064
vn 0.004006873 -0.9998937 -0.0140235
vn -0.9273363 0 -0.3742292
vn 0.9394832 0 0.342595
vn -0.003837986 0.9998934 0.01408509
vn -0.003902473 0.9998946 0.01398445
vn -0.9381997 0 -0.3460944
vn 0.9381997 0 0.3460944

g West City Drive 4
usemtl ProBuilderDefault
f 3/3/1 4/4/1 2/2/1 1/1/1
f 4/7/2 6/8/2 5/6/2 2/5/2
f 8/11/3 3/12/3 1/10/3 7/9/3
f 8/15/4 6/16/4 4/14/4 3/13/4
f 1/19/5 2/20/5 5/18/5 7/17/5
f 9/21/5 10/22/5 7/17/5 5/18/5
f 11/25/6 9/26/6 5/24/6 6/23/6
f 10/29/7 12/30/7 8/28/7 7/27/7
f 12/31/4 11/32/4 6/16/4 8/15/4
f 13/35/8 14/36/9 10/34/8 9/33/8
f 15/39/10 13/40/10 9/38/10 11/37/10
f 14/43/11 16/44/11 12/42/11 10/41/11
f 16/47/13 15/48/13 11/46/13 12/45/12
f 17/51/5 18/52/5 14/50/5 13/49/5
f 19/55/14 17/56/14 13/54/14 15/53/14
f 18/59/15 20/60/15 16/58/15 14/57/15
f 20/63/4 19/64/4 15/62/4 16/61/4

