# ProBuilder 4.0.5
# https://unity3d.com/unity/features/worldbuilding/probuilder
# 6/2/2019 11:07:12 PM

mtllib ./West_City_Drive_2.mtl
o West City Drive 2

g West City Drive 2
v 145.2699 18.9783 162.3653
v 172.3739 18.9783 162.2971
v 141.951 13.79058 68.67787
v 169.1763 13.79058 65.86156
v 145.2699 21.46855 162.3653
v 141.951 16.28084 68.67787
v 172.3739 21.46855 162.2971
v 169.1763 16.28084 65.86156

vt -11.89237 48.25275
vt 15.21164 48.18438
vt -15.21198 -45.57821
vt 12.01335 -48.39042
vt 47.80061 3.838984
vt 47.80061 1.348728
vt -45.94562 -1.34873
vt -45.94562 -3.838985
vt -48.66126 1.348728
vt -48.66126 3.838984
vt 47.82726 -3.838985
vt 47.82726 -1.34873
vt -15.21198 48.32016
vt 11.89204 48.38853
vt -12.0137 -48.25477
vt 15.21162 -45.44232

vn 0.000139243 -0.9984707 0.05528294
vn 0.002838476 -0.9985107 0.054408
vn 0.005537709 -0.9985507 0.05353305
vn -0.9993731 0 0.03540279
vn 0.9994507 0 -0.03313939
vn -0.0001352875 0.9985564 -0.0537125
vn -0.002916805 0.9985109 -0.0543991
vn -0.005698322 0.9984654 -0.0550857

g West City Drive 2
usemtl ProBuilderDefault
f 3/3/2 4/4/3 2/2/2 1/1/1
f 6/7/4 3/8/4 1/6/4 5/5/4
f 4/11/5 8/12/5 7/10/5 2/9/5
f 8/15/7 6/16/8 5/14/7 7/13/6

