# ProBuilder 4.0.5
# https://unity3d.com/unity/features/worldbuilding/probuilder
# 6/2/2019 10:34:02 PM

mtllib ./Bay_View_Parkway_1.mtl
o Bay View Parkway 1

g Bay View Parkway 1
v 288.3996 10.15991 -11.13142
v 271.8201 10.15991 -10.50372
v 288.3996 12.1549 -11.13142
v 271.8201 12.1549 -10.50372
v 286.826 9.221719 -39.52173
v 270.2465 9.221719 -40.36964
v 286.826 11.21671 -39.52173
v 270.2465 11.21671 -40.36964

vt 8.528829 -0.5284042
vt -8.062517 -0.5284042
vt 8.528829 1.466591
vt -8.062517 1.466591
vt 7.505374 -14.12546
vt -9.07407 -14.97385
vt 9.07742 14.28043
vt -7.502023 14.90685
vt 13.64821 0.5284033
vt 13.64821 -1.466592
vt -14.78567 1.466591
vt -14.78567 -0.5284042
vt -15.38985 -1.466592
vt -15.38985 0.5284033
vt 14.5175 -0.5284042
vt 14.5175 1.466591
vt 9.077408 -14.90938
vt -7.502038 -14.06104
vt 7.505282 14.97136
vt -9.074163 14.34481

vn 0.03783302 0 0.9992841
vn -0.001693931 -0.9994499 0.03312177
vn -0.000253785 -0.9994791 0.03222857
vn 0.001186361 -0.9995083 0.03133536
vn 0.9984674 0 -0.05534379
vn -0.9986148 0 0.05261713
vn 0.001610096 0.999503 -0.03148254
vn 0.0001811338 0.9994795 -0.03222073
vn -0.001247829 0.9994559 -0.03295891

g Bay View Parkway 1
usemtl ProBuilderDefault
f 3/3/1 4/4/1 2/2/1 1/1/1
f 1/7/3 2/8/4 6/6/3 5/5/2
f 3/11/5 1/12/5 5/10/5 7/9/5
f 2/15/6 4/16/6 8/14/6 6/13/6
f 4/19/8 3/20/9 7/18/8 8/17/7

