# ProBuilder 4.0.5
# https://unity3d.com/unity/features/worldbuilding/probuilder
# 6/2/2019 10:34:15 PM

mtllib ./Bay_View_Parkway_2.mtl
o Bay View Parkway 2

g Bay View Parkway 2
v 302.6685 11.11136 -84.2511
v 286.0891 11.11136 -88.93158
v 290.5486 9.633809 -54.95097
v 273.9691 9.633809 -59.63145
v 302.6685 13.10636 -84.2511
v 290.5486 11.6288 -54.95097
v 286.0891 13.10636 -88.93158
v 273.9691 11.6288 -59.63145
v 286.826 9.221719 -39.52173
v 270.2465 9.221719 -40.36964
v 286.826 11.21671 -39.52173
v 270.2465 11.21671 -40.36964

vt 16.20901 -19.99237
vt -0.3691107 -24.67762
vt 4.071227 9.337608
vt -12.50689 4.652359
vt 24.70032 1.94232
vt 24.70032 -0.05267525
vt -7.007567 0.4647655
vt -7.007567 -1.53023
vt -22.6881 -0.05267525
vt -22.6881 1.94232
vt 9.019792 -1.53023
vt 9.019792 0.4647655
vt 0.3436814 -24.7676
vt -16.23444 -20.08235
vt 12.48146 4.562381
vt -4.096656 9.24763
vt 4.080161 9.311753
vt -12.49889 4.62981
vt 0.3547188 24.74582
vt -16.22434 23.89524
vt -8.057425 0.4647655
vt -8.057425 -1.53023
vt -23.9294 0.05267525
vt -23.9294 -1.94232
vt 6.881429 -1.53023
vt 6.881429 0.4647655
vt 26.49967 -1.94232
vt 26.49967 0.05267525
vt 12.48554 4.583377
vt -4.093659 9.264821
vt 16.21046 23.84915
vt -0.3687344 24.69882

vn 0.01273358 -0.9989011 -0.04510562
vn 0.9240642 0 0.3822372
vn -0.9240642 0 -0.3822372
vn -0.01273358 0.9989011 0.04510562
vn 0.007056742 -0.9996626 -0.02499679
vn 0.00406997 -0.9997189 -0.0230884
vn 0.001083199 -0.9997751 -0.02118001
vn 0.9721063 0 0.2345408
vn -0.9818318 0 -0.1897533
vn -0.00572595 0.9997779 0.02028279
vn -0.003537382 0.9997146 0.02332821
vn -0.001348814 0.9996512 0.02637364

g Bay View Parkway 2
usemtl ProBuilderDefault
f 3/3/1 4/4/1 2/2/1 1/1/1
f 6/7/2 3/8/2 1/6/2 5/5/2
f 4/11/3 8/12/3 7/10/3 2/9/3
f 8/15/4 6/16/4 5/14/4 7/13/4
f 9/19/6 10/20/7 4/18/6 3/17/5
f 11/23/8 9/24/8 3/22/8 6/21/8
f 10/27/9 12/28/9 8/26/9 4/25/9
f 12/31/11 11/32/12 6/30/11 8/29/10

