# ProBuilder 4.0.5
# https://unity3d.com/unity/features/worldbuilding/probuilder
# 6/2/2019 10:34:47 PM

mtllib ./Bay_View_Parkway_3.mtl
o Bay View Parkway 3

g Bay View Parkway 3
v 312.0242 15.946 -140.947
v 296.2465 15.946 -137.1361
v 307.8722 12.82074 -105.3637
v 291.838 12.82074 -108.5749
v 312.0242 17.94099 -140.947
v 307.8722 14.81574 -105.3637
v 296.2465 17.94099 -137.1361
v 291.838 14.81574 -108.5749
v 302.6685 11.11136 -84.2511
v 286.0891 11.11136 -88.93158
v 302.6685 13.10636 -84.2511
v 286.0891 13.10636 -88.93158

vt 12.93352 -28.38612
vt -2.840497 -24.55972
vt 8.850671 7.342101
vt -7.17972 4.175369
vt 29.65982 3.414816
vt 29.65982 1.419821
vt -6.164866 0.2895613
vt -6.164866 -1.705434
vt -23.8212 1.419821
vt -23.8212 3.414816
vt 5.078166 -1.705434
vt 5.078166 0.2895613
vt 2.902834 -24.75684
vt -12.86899 -28.59224
vt 7.223886 3.988048
vt -8.804286 7.129095
vt 8.788149 7.355542
vt -7.244147 4.134749
vt 3.558685 28.53087
vt -13.0188 23.84455
vt -4.915443 0.2895613
vt -4.915443 -1.705434
vt -26.65986 -1.41982
vt -26.65986 -3.414815
vt 5.889684 -1.705434
vt 5.889684 0.2895613
vt 26.35702 -3.414815
vt 26.35702 -1.41982
vt 7.212914 3.977112
vt -8.819124 7.199191
vt 12.98921 23.68671
vt -3.588017 28.37382

vn -0.02173533 -0.9957056 -0.08998835
vn -0.000300589 -0.9949488 -0.09775703
vn 0.02113415 -0.994192 -0.1055257
vn 0.993261 0 0.1158988
vn -0.9882964 0 -0.1525459
vn 0.02726728 0.9932331 0.1128917
vn 0.005072202 0.9947122 0.09919424
vn -0.01712287 0.9961913 0.08549684
vn 0.01540487 -0.9969184 -0.07691861
vn 0.0190089 -0.9967244 -0.07850972
vn 0.02261293 -0.9965303 -0.08010083
vn 0.970943 0 0.2393108
vn -0.959742 0 -0.2808832
vn -0.01640557 0.9965043 0.08191524
vn -0.01885486 0.9967126 0.07869003
vn -0.02130416 0.9969209 0.07546481

g Bay View Parkway 3
usemtl ProBuilderDefault
f 3/3/2 4/4/3 2/2/2 1/1/1
f 6/7/4 3/8/4 1/6/4 5/5/4
f 4/11/5 8/12/5 7/10/5 2/9/5
f 8/15/7 6/16/8 5/14/7 7/13/6
f 9/19/10 10/20/11 4/18/10 3/17/9
f 11/23/12 9/24/12 3/22/12 6/21/12
f 10/27/13 12/28/13 8/26/13 4/25/13
f 12/31/15 11/32/16 6/30/15 8/29/14

