# ProBuilder 4.0.5
# https://unity3d.com/unity/features/worldbuilding/probuilder
# 6/2/2019 1:51:38 AM

mtllib ./Midway_Overpass_9.mtl
o Midway Overpass 9

g Midway Overpass 9
v 243.5816 3.796213 -400.3582
v 240.538 3.796213 -423.6719
v 243.5816 5.865636 -400.3582
v 240.538 5.865636 -423.6719
v 267.3227 4.120576 -422.1911
v 267.3227 6.19 -422.1911
v 269.4945 4.120576 -406.3659
v 269.4945 6.19 -406.3659
v 280.6775 7.195078 -368.5493
v 254.7646 6.870714 -362.5416
v 280.6775 9.264502 -368.5493
v 254.7646 8.940138 -362.5416
v 290.8716 10.82626 -325.5225
v 264.9587 10.50189 -319.5148
v 290.8716 12.89568 -325.5225
v 264.9587 12.57132 -319.5148
v 295.5775 10.82626 -304.6153
v 269.6646 10.50189 -298.6076
v 295.5775 12.89568 -304.6153
v 269.6646 12.57132 -298.6076
v 300.5704 11.36717 -279.6284
v 274.6574 11.0428 -273.6207
v 300.5704 13.43659 -279.6284
v 274.6574 13.11223 -273.6207
v 304.1765 11.83628 -253.7061
v 278.2635 11.97359 -247.6984
v 304.1765 13.90571 -253.7061
v 278.2635 14.04301 -247.6984

vt -67.85399 -5.1234
vt -91.36545 -5.1234
vt -67.85399 -3.053977
vt -91.36545 -3.053977
vt 36.6277 -5.1234
vt 9.802099 -4.799037
vt 36.6277 -3.053977
vt 9.802099 -2.729613
vt 86.38715 -4.799037
vt 70.41369 -4.799037
vt 86.38715 -2.729613
vt 70.41369 -2.729613
vt 2.895633 -70.67623
vt 28.81059 -64.66853
vt 5.067287 -86.50139
vt 31.85395 -87.98219
vt -5.092728 -86.49789
vt -31.87939 -87.9787
vt -2.921075 -70.67274
vt -28.83604 -64.66505
vt -3.002308 -70.83655
vt -28.9136 -64.81305
vt 8.2661 -32.92037
vt -17.6452 -26.89687
vt 68.59113 -2.729613
vt 68.59113 -4.799037
vt 29.1556 0.3448887
vt 29.1556 -1.724535
vt -70.17838 -5.1234
vt -70.17838 -3.053977
vt -30.74285 -2.048899
vt -30.74285 0.02052498
vt 28.85288 -64.66329
vt 2.941589 -70.68679
vt 17.58447 -26.74711
vt -8.326819 -32.77061
vt 8.264013 -32.91881
vt -17.6468 -26.89327
vt 18.56381 10.23585
vt -7.347041 16.2614
vt 30.06067 0.3448887
vt 30.06067 -1.724535
vt -14.15726 3.976068
vt -14.15726 1.906645
vt -30.18884 -2.048899
vt -30.18884 0.02052498
vt 14.02908 1.582281
vt 14.02908 3.651705
vt 17.5839 -26.73415
vt -8.326921 -32.7597
vt 7.284133 16.42051
vt -18.62671 10.39497
vt 18.53578 10.15811
vt -7.379214 16.16582
vt 23.24134 31.06532
vt -2.673645 37.07303
vt -13.98022 3.976068
vt -13.98022 1.906645
vt -35.41043 3.976068
vt -35.41043 1.906645
vt 14.151 1.582281
vt 14.151 3.651705
vt 35.5812 1.582281
vt 35.5812 3.651705
vt 7.354596 16.16028
vt -18.56039 10.15257
vt 2.649027 37.06749
vt -23.26596 31.05978
vt 23.249 31.09235
vt -2.665765 37.10105
vt 28.25022 56.08347
vt 2.335458 62.09217
vt -35.01741 3.976068
vt -35.01741 1.906645
vt -60.4983 4.516977
vt -60.4983 2.447554
vt 35.83112 1.582281
vt 35.83112 3.651705
vt 61.31201 2.12319
vt 61.31201 4.192614
vt 2.631086 37.1389
vt -23.28368 31.1302
vt -2.370136 62.13002
vt -28.2849 56.12132
vt 28.24909 56.08123
vt 2.334272 62.08967
vt 31.86229 82.00681
vt 5.954947 88.02258
vt -59.4094 4.516977
vt -59.4094 2.447554
vt -85.58136 4.986093
vt -85.58136 2.91667
vt 61.7894 2.12319
vt 61.7894 4.192614
vt 87.96136 3.053976
vt 87.96136 5.123399
vt -2.384368 62.16757
vt -28.2986 56.15659
vt -6.008502 88.10409
vt -31.91341 82.07784

vn -0.9915859 0 0.1294509
vn 0.05520117 0 -0.9984753
vn 0.9907138 0 -0.1359638
vn -0.01213054 0.9999251 0.001664775
vn 0.0122017 -0.9999242 -0.00167454
vn 0.02926408 -0.9969464 0.07239801
vn 0.9589494 0 -0.2835771
vn -0.9589494 0 0.2835771
vn -0.02926408 0.9969464 -0.07239801
vn 0.03030867 -0.9965762 0.07692362
vn 0.9730622 0 -0.2305428
vn -0.9730624 0 0.2305421
vn -0.03030868 0.9965762 -0.07692365
vn 0.01189573 -0.9999257 -0.002677562
vn 0.9755918 0 -0.219592
vn -0.9755918 0 0.219592
vn -0.01189573 0.9999257 0.002677562
vn 0.01675467 -0.9996923 0.0182931
vn 0.9806148 0 -0.1959452
vn -0.9806148 0 0.1959452
vn -0.01675467 0.9996923 -0.0182931
vn 0.01618672 -0.9997435 0.0158406
vn 0.009558117 -0.9995549 0.02565852
vn 0.002929511 -0.9993662 0.03547645
vn 0.9904623 0 -0.1377841
vn -0.9904623 0 0.1377841
vn -0.02017572 0.9992493 -0.03307309
vn -0.009553622 0.9995412 -0.02565785
vn 0.001068475 0.999833 -0.01824261

g Midway Overpass 9
usemtl ProBuilderDefault
f 3/3/1 4/4/1 2/2/1 1/1/1
f 4/7/2 6/8/2 5/6/2 2/5/2
f 6/11/3 8/12/3 7/10/3 5/9/3
f 6/15/4 4/16/4 3/14/4 8/13/4
f 7/19/5 1/20/5 2/18/5 5/17/5
f 9/23/6 10/24/6 1/22/6 7/21/6
f 11/27/7 9/28/7 7/26/7 8/25/7
f 10/31/8 12/32/8 3/30/8 1/29/8
f 12/35/9 11/36/9 8/34/9 3/33/9
f 13/39/10 14/40/10 10/38/10 9/37/10
f 15/43/11 13/44/11 9/42/11 11/41/11
f 14/47/12 16/48/12 12/46/12 10/45/12
f 16/51/13 15/52/13 11/50/13 12/49/13
f 17/55/14 18/56/14 14/54/14 13/53/14
f 19/59/15 17/60/15 13/58/15 15/57/15
f 18/63/16 20/64/16 16/62/16 14/61/16
f 20/67/17 19/68/17 15/66/17 16/65/17
f 21/71/18 22/72/18 18/70/18 17/69/18
f 23/75/19 21/76/19 17/74/19 19/73/19
f 22/79/20 24/80/20 20/78/20 18/77/20
f 24/83/21 23/84/21 19/82/21 20/81/21
f 25/87/23 26/88/24 22/86/23 21/85/22
f 27/91/25 25/92/25 21/90/25 23/89/25
f 26/95/26 28/96/26 24/94/26 22/93/26
f 28/99/28 27/100/29 23/98/28 24/97/27

