# ProBuilder 4.0.5
# https://unity3d.com/unity/features/worldbuilding/probuilder
# 6/2/2019 1:50:44 AM

mtllib ./Midway_Overpass_3.mtl
o Midway Overpass 3

g Midway Overpass 3
v 140.0796 22.42783 -51.20267
v 135.2529 22.5077 -78.306
v 54.70564 22.42783 -42.4599
v 53.17618 22.5077 -69.56323
v 140.0796 24.49725 -51.20267
v 54.70564 24.49725 -42.4599
v 135.2529 24.57712 -78.306
v 53.17618 24.57712 -69.56323
v -2.22197 21.69171 -39.72601
v -3.751419 21.77158 -66.82935
v -2.22197 23.76113 -39.72601
v -3.751419 23.841 -66.82935

vt 71.9157 7.81529
vt 67.08903 -19.28816
vt -13.45822 16.55809
vt -14.98771 -10.54535
vt 70.74538 1.362837
vt 70.74538 -0.7065868
vt -15.07503 1.362837
vt -15.07503 -0.7065868
vt -68.75464 -0.6267147
vt -68.75464 1.442709
vt 13.78641 -0.6267147
vt 13.78641 1.442709
vt -67.08839 -19.29415
vt -71.91506 7.809301
vt 14.98834 -10.55134
vt 13.45885 16.55211
vt -13.46634 16.55796
vt -14.99467 -10.54556
vt -70.39871 19.29186
vt -71.92702 -7.811653
vt -14.23711 1.362837
vt -14.23711 -0.7065868
vt -71.23033 0.6267147
vt -71.23033 -1.442709
vt 14.4647 -0.6267147
vt 14.4647 1.442709
vt 71.45791 -1.362837
vt 71.45791 0.7065868
vt 14.96827 -10.55314
vt 13.43995 16.55037
vt 71.90063 -7.81924
vt 70.37232 19.28428

vn -0.0002963778 -0.9999958 -0.002894156
vn 0.1018728 0 0.9947975
vn -0.1059202 0 -0.9943746
vn 0.0003080623 0.9999958 0.002892076
vn 0.01275363 -0.999912 -0.003666388
vn 0.04796863 0 0.9988489
vn -0.04796864 0 -0.9988489
vn -0.01275364 0.999912 0.003666388

g Midway Overpass 3
usemtl ProBuilderDefault
f 3/3/1 4/4/1 2/2/1 1/1/1
f 6/7/2 3/8/2 1/6/2 5/5/2
f 4/11/3 8/12/3 7/10/3 2/9/3
f 8/15/4 6/16/4 5/14/4 7/13/4
f 9/19/5 10/20/5 4/18/5 3/17/5
f 11/23/6 9/24/6 3/22/6 6/21/6
f 10/27/7 12/28/7 8/26/7 4/25/7
f 12/31/8 11/32/8 6/30/8 8/29/8

