# ProBuilder 4.0.5
# https://unity3d.com/unity/features/worldbuilding/probuilder
# 6/2/2019 1:50:59 AM

mtllib ./Midway_Overpass_5.mtl
o Midway Overpass 5

g Midway Overpass 5
v 244.6786 18.56173 -111.2567
v 226.7471 18.6416 -130.7751
v 186.9168 21.47812 -70.6763
v 175.9797 21.55799 -95.78262
v 244.6786 20.63115 -111.2567
v 186.9168 23.54754 -70.6763
v 226.7471 20.71102 -130.7751
v 175.9797 23.62741 -95.78262

vt 34.41348 -10.56393
vt 16.48884 -30.08881
vt -23.4125 30.02987
vt -34.34641 4.92477
vt 34.16032 -0.463419
vt 34.16032 -2.532843
vt -36.43143 2.452971
vt -36.43143 0.3835468
vt -30.57151 -2.452971
vt -30.57151 -0.3835468
vt 31.08727 0.463419
vt 31.08727 2.532843
vt -16.42093 -30.02949
vt -34.34315 -10.5024
vt 34.41948 4.978558
vt 23.4869 30.08338

vn -0.0324045 -0.9991449 0.02568119
vn -0.03910827 -0.998977 0.02123037
vn -0.04581204 -0.9988092 0.01677954
vn 0.5748606 0 0.8182514
vn -0.5675189 0 -0.8233604
vn 0.03685888 0.9988769 -0.0297745
vn 0.03859581 0.9989798 -0.02208311
vn 0.04033275 0.9990827 -0.01439173

g Midway Overpass 5
usemtl ProBuilderDefault
f 3/3/2 4/4/3 2/2/2 1/1/1
f 6/7/4 3/8/4 1/6/4 5/5/4
f 4/11/5 8/12/5 7/10/5 2/9/5
f 8/15/7 6/16/8 5/14/7 7/13/6

